<svg id="visual" viewBox="0 0 900 600" width="900" height="600" xmlns="http://www.w3.org/2000/svg" xmlns:xlink="http://www.w3.org/1999/xlink" version="1.1"><g stroke-width="1" stroke-linejoin="bevel"><path d="M473 336L587 287L428 261Z" fill="#daff00" stroke="#daff00"></path><path d="M587 287L486 184L428 261Z" fill="#ffb300" stroke="#ffb300"></path><path d="M587 287L624 187L486 184Z" fill="#ff0074" stroke="#ff0074"></path><path d="M486 184L373 236L428 261Z" fill="#ff0074" stroke="#ff0074"></path><path d="M428 261L414 431L473 336Z" fill="#6046ff" stroke="#6046ff"></path><path d="M587 287L662 233L624 187Z" fill="#ff3b58" stroke="#ff3b58"></path><path d="M414 431L508 420L473 336Z" fill="#6046ff" stroke="#6046ff"></path><path d="M473 336L508 420L587 287Z" fill="#f9da00" stroke="#f9da00"></path><path d="M587 287L689 326L662 233Z" fill="#ff633e" stroke="#ff633e"></path><path d="M588 104L471 97L486 184Z" fill="#ff8b1b" stroke="#ff8b1b"></path><path d="M486 184L361 81L373 236Z" fill="#6046ff" stroke="#6046ff"></path><path d="M725 84L588 104L624 187Z" fill="#6046ff" stroke="#6046ff"></path><path d="M624 187L588 104L486 184Z" fill="#f9da00" stroke="#f9da00"></path><path d="M361 81L333 210L373 236Z" fill="#ffb300" stroke="#ffb300"></path><path d="M293 285L414 431L428 261Z" fill="#ff0074" stroke="#ff0074"></path><path d="M618 422L689 326L587 287Z" fill="#ff633e" stroke="#ff633e"></path><path d="M508 420L618 422L587 287Z" fill="#f60095" stroke="#f60095"></path><path d="M293 285L428 261L373 236Z" fill="#ff8b1b" stroke="#ff8b1b"></path><path d="M508 420L510 502L618 422Z" fill="#ff3b58" stroke="#ff3b58"></path><path d="M333 210L293 285L373 236Z" fill="#b321de" stroke="#b321de"></path><path d="M399 0L361 81L471 97Z" fill="#daff00" stroke="#daff00"></path><path d="M471 97L361 81L486 184Z" fill="#daff00" stroke="#daff00"></path><path d="M333 210L238 205L293 285Z" fill="#de00ba" stroke="#de00ba"></path><path d="M414 431L510 502L508 420Z" fill="#ff633e" stroke="#ff633e"></path><path d="M692 529L709 397L618 422Z" fill="#de00ba" stroke="#de00ba"></path><path d="M618 422L709 397L689 326Z" fill="#ff0074" stroke="#ff0074"></path><path d="M361 81L303 133L333 210Z" fill="#ff633e" stroke="#ff633e"></path><path d="M588 104L526 0L471 97Z" fill="#ffb300" stroke="#ffb300"></path><path d="M689 326L767 328L662 233Z" fill="#daff00" stroke="#daff00"></path><path d="M674 0L572 0L588 104Z" fill="#ff3b58" stroke="#ff3b58"></path><path d="M588 104L572 0L526 0Z" fill="#ff3b58" stroke="#ff3b58"></path><path d="M709 397L767 328L689 326Z" fill="#ff8b1b" stroke="#ff8b1b"></path><path d="M725 84L624 187L662 233Z" fill="#ff633e" stroke="#ff633e"></path><path d="M181 335L274 407L293 285Z" fill="#ff3b58" stroke="#ff3b58"></path><path d="M293 285L274 407L414 431Z" fill="#ff8b1b" stroke="#ff8b1b"></path><path d="M414 431L383 525L510 502Z" fill="#de00ba" stroke="#de00ba"></path><path d="M303 133L238 205L333 210Z" fill="#b321de" stroke="#b321de"></path><path d="M784 192L725 84L662 233Z" fill="#ff3b58" stroke="#ff3b58"></path><path d="M767 328L784 192L662 233Z" fill="#ffb300" stroke="#ffb300"></path><path d="M526 0L399 0L471 97Z" fill="#de00ba" stroke="#de00ba"></path><path d="M287 0L221 115L303 133Z" fill="#f9da00" stroke="#f9da00"></path><path d="M303 133L221 115L238 205Z" fill="#ff8b1b" stroke="#ff8b1b"></path><path d="M289 488L383 525L414 431Z" fill="#b321de" stroke="#b321de"></path><path d="M591 600L617 534L510 502Z" fill="#f9da00" stroke="#f9da00"></path><path d="M510 502L617 534L618 422Z" fill="#b321de" stroke="#b321de"></path><path d="M709 397L789 380L767 328Z" fill="#de00ba" stroke="#de00ba"></path><path d="M787 487L789 380L709 397Z" fill="#ff633e" stroke="#ff633e"></path><path d="M767 328L900 266L784 192Z" fill="#daff00" stroke="#daff00"></path><path d="M725 84L674 0L588 104Z" fill="#f60095" stroke="#f60095"></path><path d="M274 407L289 488L414 431Z" fill="#f9da00" stroke="#f9da00"></path><path d="M784 192L776 83L725 84Z" fill="#ff3b58" stroke="#ff3b58"></path><path d="M725 84L784 0L674 0Z" fill="#6046ff" stroke="#6046ff"></path><path d="M617 534L692 529L618 422Z" fill="#ff0074" stroke="#ff0074"></path><path d="M287 0L303 133L361 81Z" fill="#de00ba" stroke="#de00ba"></path><path d="M238 205L181 335L293 285Z" fill="#ffb300" stroke="#ffb300"></path><path d="M135 171L181 335L238 205Z" fill="#ff8b1b" stroke="#ff8b1b"></path><path d="M274 407L169 426L289 488Z" fill="#ff0074" stroke="#ff0074"></path><path d="M383 525L488 600L510 502Z" fill="#ffb300" stroke="#ffb300"></path><path d="M617 534L724 600L692 529Z" fill="#ff633e" stroke="#ff633e"></path><path d="M407 600L488 600L383 525Z" fill="#ff633e" stroke="#ff633e"></path><path d="M399 0L287 0L361 81Z" fill="#ff633e" stroke="#ff633e"></path><path d="M488 600L591 600L510 502Z" fill="#de00ba" stroke="#de00ba"></path><path d="M282 600L407 600L383 525Z" fill="#daff00" stroke="#daff00"></path><path d="M724 600L787 487L692 529Z" fill="#6046ff" stroke="#6046ff"></path><path d="M692 529L787 487L709 397Z" fill="#ff633e" stroke="#ff633e"></path><path d="M181 335L169 426L274 407Z" fill="#ffb300" stroke="#ffb300"></path><path d="M289 488L282 600L383 525Z" fill="#ff3b58" stroke="#ff3b58"></path><path d="M900 0L784 0L776 83Z" fill="#ff633e" stroke="#ff633e"></path><path d="M776 83L784 0L725 84Z" fill="#f60095" stroke="#f60095"></path><path d="M900 104L776 83L784 192Z" fill="#ff633e" stroke="#ff633e"></path><path d="M83 95L135 171L221 115Z" fill="#f9da00" stroke="#f9da00"></path><path d="M221 115L135 171L238 205Z" fill="#ff633e" stroke="#ff633e"></path><path d="M181 335L138 382L169 426Z" fill="#daff00" stroke="#daff00"></path><path d="M287 0L225 0L221 115Z" fill="#ff0074" stroke="#ff0074"></path><path d="M62 268L138 382L181 335Z" fill="#de00ba" stroke="#de00ba"></path><path d="M900 418L900 266L789 380Z" fill="#ff3b58" stroke="#ff3b58"></path><path d="M789 380L900 266L767 328Z" fill="#f9da00" stroke="#f9da00"></path><path d="M900 266L900 196L784 192Z" fill="#f60095" stroke="#f60095"></path><path d="M591 600L724 600L617 534Z" fill="#ff0074" stroke="#ff0074"></path><path d="M174 511L289 488L169 426Z" fill="#b321de" stroke="#b321de"></path><path d="M174 511L282 600L289 488Z" fill="#ff3b58" stroke="#ff3b58"></path><path d="M94 476L174 511L169 426Z" fill="#ff8b1b" stroke="#ff8b1b"></path><path d="M900 485L900 418L787 487Z" fill="#daff00" stroke="#daff00"></path><path d="M787 487L900 418L789 380Z" fill="#de00ba" stroke="#de00ba"></path><path d="M900 196L900 104L784 192Z" fill="#b321de" stroke="#b321de"></path><path d="M135 171L62 268L181 335Z" fill="#de00ba" stroke="#de00ba"></path><path d="M138 382L94 476L169 426Z" fill="#b321de" stroke="#b321de"></path><path d="M0 233L62 268L135 171Z" fill="#ff0074" stroke="#ff0074"></path><path d="M837 600L900 485L787 487Z" fill="#de00ba" stroke="#de00ba"></path><path d="M102 0L83 95L221 115Z" fill="#6046ff" stroke="#6046ff"></path><path d="M0 396L94 476L138 382Z" fill="#f60095" stroke="#f60095"></path><path d="M174 511L175 600L282 600Z" fill="#ff8b1b" stroke="#ff8b1b"></path><path d="M724 600L837 600L787 487Z" fill="#b321de" stroke="#b321de"></path><path d="M900 104L900 0L776 83Z" fill="#ffb300" stroke="#ffb300"></path><path d="M70 600L175 600L174 511Z" fill="#ff3b58" stroke="#ff3b58"></path><path d="M225 0L102 0L221 115Z" fill="#b321de" stroke="#b321de"></path><path d="M62 268L0 396L138 382Z" fill="#f9da00" stroke="#f9da00"></path><path d="M0 233L0 286L62 268Z" fill="#f60095" stroke="#f60095"></path><path d="M0 233L135 171L83 95Z" fill="#ff633e" stroke="#ff633e"></path><path d="M0 69L0 233L83 95Z" fill="#daff00" stroke="#daff00"></path><path d="M837 600L900 600L900 485Z" fill="#f60095" stroke="#f60095"></path><path d="M0 286L0 396L62 268Z" fill="#ff3b58" stroke="#ff3b58"></path><path d="M94 476L70 600L174 511Z" fill="#daff00" stroke="#daff00"></path><path d="M102 0L0 69L83 95Z" fill="#b321de" stroke="#b321de"></path><path d="M0 521L70 600L94 476Z" fill="#daff00" stroke="#daff00"></path><path d="M0 396L0 521L94 476Z" fill="#ff0074" stroke="#ff0074"></path><path d="M102 0L0 0L0 69Z" fill="#ff8b1b" stroke="#ff8b1b"></path><path d="M0 521L0 600L70 600Z" fill="#f60095" stroke="#f60095"></path></g></svg>