<?xml version="1.0" encoding="utf-8" standalone="no"?>
<!DOCTYPE svg PUBLIC "-//W3C//DTD SVG 1.1//EN"
  "http://www.w3.org/Graphics/SVG/1.1/DTD/svg11.dtd">
<svg xmlns:xlink="http://www.w3.org/1999/xlink" width="720pt" height="432pt" viewBox="0 0 720 432" xmlns="http://www.w3.org/2000/svg" version="1.1">
 <metadata>
  <rdf:RDF xmlns:dc="http://purl.org/dc/elements/1.1/" xmlns:cc="http://creativecommons.org/ns#" xmlns:rdf="http://www.w3.org/1999/02/22-rdf-syntax-ns#">
   <cc:Work>
    <dc:type rdf:resource="http://purl.org/dc/dcmitype/StillImage"/>
    <dc:date>2025-05-09T15:41:59.379361</dc:date>
    <dc:format>image/svg+xml</dc:format>
    <dc:creator>
     <cc:Agent>
      <dc:title>Matplotlib v3.10.0, https://matplotlib.org/</dc:title>
     </cc:Agent>
    </dc:creator>
   </cc:Work>
  </rdf:RDF>
 </metadata>
 <defs>
  <style type="text/css">*{stroke-linejoin: round; stroke-linecap: butt}</style>
 </defs>
 <g id="figure_1">
  <g id="patch_1">
   <path d="M 0 432 
L 720 432 
L 720 0 
L 0 0 
z
" style="fill: #ffffff"/>
  </g>
  <g id="axes_1">
   <g id="patch_2">
    <path d="M 50.6 372.102354 
L 709.2 372.102354 
L 709.2 41.6 
L 50.6 41.6 
z
" style="fill: #ffffff"/>
   </g>
   <g id="FillBetweenPolyCollection_1">
    <defs>
     <path id="me236cb9d3c" d="M 89.802381 -137.785605 
L 89.802381 -140.803512 
L 97.642857 -149.308916 
L 105.483333 -161.428469 
L 113.32381 -167.933283 
L 121.164286 -163.968845 
L 129.004762 -159.863826 
L 136.845238 -159.669968 
L 144.685714 -167.526408 
L 152.52619 -165.202841 
L 160.366667 -170.431045 
L 168.207143 -167.014636 
L 176.047619 -166.075381 
L 183.888095 -163.883612 
L 191.728571 -164.551598 
L 199.569048 -160.896068 
L 207.409524 -158.540831 
L 215.25 -163.627472 
L 223.090476 -178.565531 
L 230.930952 -182.710753 
L 238.771429 -181.164213 
L 246.611905 -173.112097 
L 254.452381 -162.397526 
L 262.292857 -146.968613 
L 270.133333 -150.060411 
L 277.97381 -157.053578 
L 285.814286 -149.422269 
L 293.654762 -149.147527 
L 301.495238 -151.695652 
L 309.335714 -145.165291 
L 317.17619 -151.469938 
L 325.016667 -156.549077 
L 332.857143 -162.497594 
L 340.697619 -173.6707 
L 348.538095 -169.863869 
L 356.378571 -172.787859 
L 364.219048 -161.504651 
L 372.059524 -156.236691 
L 379.9 -151.975426 
L 387.740476 -147.689887 
L 395.580952 -155.88065 
L 403.421429 -161.503821 
L 411.261905 -164.893686 
L 419.102381 -173.216278 
L 426.942857 -169.447485 
L 434.783333 -165.344914 
L 442.62381 -167.483494 
L 450.464286 -179.104929 
L 458.304762 -194.202576 
L 466.145238 -206.336045 
L 473.985714 -207.4835 
L 481.82619 -195.515149 
L 489.666667 -180.202962 
L 497.507143 -178.502367 
L 505.347619 -181.068394 
L 513.188095 -189.807796 
L 521.028571 -195.222893 
L 528.869048 -196.630696 
L 536.709524 -211.470989 
L 544.55 -227.40156 
L 552.390476 -244.463071 
L 560.230952 -254.666485 
L 560.230952 -230.226213 
L 560.230952 -230.226213 
L 552.390476 -222.790896 
L 544.55 -207.359661 
L 536.709524 -194.58151 
L 528.869048 -184.263208 
L 521.028571 -184.80289 
L 513.188095 -178.956821 
L 505.347619 -171.336896 
L 497.507143 -169.565886 
L 489.666667 -171.457341 
L 481.82619 -181.401268 
L 473.985714 -194.753373 
L 466.145238 -193.204553 
L 458.304762 -181.962257 
L 450.464286 -168.142145 
L 442.62381 -159.521292 
L 434.783333 -158.107421 
L 426.942857 -161.972905 
L 419.102381 -165.063085 
L 411.261905 -158.287826 
L 403.421429 -154.474208 
L 395.580952 -150.181913 
L 387.740476 -143.906022 
L 379.9 -147.027527 
L 372.059524 -150.851821 
L 364.219048 -154.633001 
L 356.378571 -164.328783 
L 348.538095 -161.912309 
L 340.697619 -165.52544 
L 332.857143 -155.459428 
L 325.016667 -151.038152 
L 317.17619 -146.538397 
L 309.335714 -141.252366 
L 301.495238 -146.698268 
L 293.654762 -144.882165 
L 285.814286 -145.023802 
L 277.97381 -151.660492 
L 270.133333 -145.54442 
L 262.292857 -142.905226 
L 254.452381 -155.689607 
L 246.611905 -164.166765 
L 238.771429 -170.54007 
L 230.930952 -172.581671 
L 223.090476 -169.119974 
L 215.25 -156.494013 
L 207.409524 -152.114872 
L 199.569048 -154.525027 
L 191.728571 -157.452054 
L 183.888095 -157.182386 
L 176.047619 -159.261695 
L 168.207143 -160.318853 
L 160.366667 -163.066998 
L 152.52619 -158.869696 
L 144.685714 -160.055768 
L 136.845238 -154.225222 
L 129.004762 -153.166026 
L 121.164286 -157.228756 
L 113.32381 -160.157254 
L 105.483333 -154.49605 
L 97.642857 -144.927605 
L 89.802381 -137.785605 
z
" style="stroke: #9400d3; stroke-opacity: 0.2; stroke-width: 2"/>
    </defs>
    <g clip-path="url(#pdd6236ed7f)">
     <use xlink:href="#me236cb9d3c" x="0" y="432" style="fill: #9400d3; fill-opacity: 0.2; stroke: #9400d3; stroke-opacity: 0.2; stroke-width: 2"/>
    </g>
   </g>
   <g id="FillBetweenPolyCollection_2">
    <defs>
     <path id="ma94c4a49f5" d="M 560.230952 -234.022276 
L 560.230952 -256.240363 
L 568.071429 -248.74642 
L 575.911905 -247.143944 
L 583.752381 -243.309953 
L 591.592857 -239.714447 
L 599.433333 -256.267102 
L 607.27381 -249.968145 
L 615.114286 -252.573203 
L 622.954762 -238.838351 
L 630.795238 -239.879639 
L 638.635714 -255.531602 
L 646.47619 -260.314288 
L 654.316667 -276.525517 
L 662.157143 -297.145772 
L 669.997619 -323.556917 
L 677.838095 -329.801745 
L 685.678571 -357.949406 
L 693.519048 -371.932083 
L 701.359524 -373.05095 
L 709.2 -356.088788 
L 709.2 -307.539237 
L 709.2 -307.539237 
L 701.359524 -326.341025 
L 693.519048 -324.043552 
L 685.678571 -308.698826 
L 677.838095 -286.542454 
L 669.997619 -286.480886 
L 662.157143 -264.022833 
L 654.316667 -245.850356 
L 646.47619 -233.979315 
L 638.635714 -230.63508 
L 630.795238 -219.666401 
L 622.954762 -221.514096 
L 615.114286 -230.899242 
L 607.27381 -224.441491 
L 599.433333 -231.617164 
L 591.592857 -217.814094 
L 583.752381 -222.220126 
L 575.911905 -223.587553 
L 568.071429 -226.539848 
L 560.230952 -234.022276 
z
" style="stroke: #9400d3; stroke-opacity: 0.2; stroke-width: 2"/>
    </defs>
    <g clip-path="url(#pdd6236ed7f)">
     <use xlink:href="#ma94c4a49f5" x="0" y="432" style="fill: #9400d3; fill-opacity: 0.2; stroke: #9400d3; stroke-opacity: 0.2; stroke-width: 2"/>
    </g>
   </g>
   <g id="patch_3">
    <path d="M 50.6 372.102354 
L 560.230952 372.102354 
L 560.230952 41.6 
L 50.6 41.6 
z
" clip-path="url(#pdd6236ed7f)" style="fill: #00ff00; opacity: 0.1; stroke: #00ff00; stroke-linejoin: miter"/>
   </g>
   <g id="patch_4">
    <path d="M 560.230952 372.102354 
L 709.2 372.102354 
L 709.2 41.6 
L 560.230952 41.6 
z
" clip-path="url(#pdd6236ed7f)" style="fill: #ffc0cb; opacity: 0.2; stroke: #ffc0cb; stroke-linejoin: miter"/>
   </g>
   <g id="matplotlib.axis_1">
    <g id="xtick_1">
     <g id="line2d_1">
      <path d="M 50.6 372.102354 
L 50.6 41.6 
" clip-path="url(#pdd6236ed7f)" style="fill: none; stroke-dasharray: 2.96,1.28; stroke-dashoffset: 0; stroke: #b0b0b0; stroke-opacity: 0.6; stroke-width: 0.8"/>
     </g>
     <g id="line2d_2">
      <defs>
       <path id="mc8d4238122" d="M 0 0 
L 0 3.5 
" style="stroke: #000000; stroke-width: 0.8"/>
      </defs>
      <g>
       <use xlink:href="#mc8d4238122" x="50.6" y="372.102354" style="stroke: #000000; stroke-width: 0.8"/>
      </g>
     </g>
     <g id="text_1">
      <!-- 1940 -->
      <g transform="translate(43.553239 402.471128) rotate(-45) scale(0.1 -0.1)">
       <defs>
        <path id="DejaVuSans-31" d="M 794 531 
L 1825 531 
L 1825 4091 
L 703 3866 
L 703 4441 
L 1819 4666 
L 2450 4666 
L 2450 531 
L 3481 531 
L 3481 0 
L 794 0 
L 794 531 
z
" transform="scale(0.015625)"/>
        <path id="DejaVuSans-39" d="M 703 97 
L 703 672 
Q 941 559 1184 500 
Q 1428 441 1663 441 
Q 2288 441 2617 861 
Q 2947 1281 2994 2138 
Q 2813 1869 2534 1725 
Q 2256 1581 1919 1581 
Q 1219 1581 811 2004 
Q 403 2428 403 3163 
Q 403 3881 828 4315 
Q 1253 4750 1959 4750 
Q 2769 4750 3195 4129 
Q 3622 3509 3622 2328 
Q 3622 1225 3098 567 
Q 2575 -91 1691 -91 
Q 1453 -91 1209 -44 
Q 966 3 703 97 
z
M 1959 2075 
Q 2384 2075 2632 2365 
Q 2881 2656 2881 3163 
Q 2881 3666 2632 3958 
Q 2384 4250 1959 4250 
Q 1534 4250 1286 3958 
Q 1038 3666 1038 3163 
Q 1038 2656 1286 2365 
Q 1534 2075 1959 2075 
z
" transform="scale(0.015625)"/>
        <path id="DejaVuSans-34" d="M 2419 4116 
L 825 1625 
L 2419 1625 
L 2419 4116 
z
M 2253 4666 
L 3047 4666 
L 3047 1625 
L 3713 1625 
L 3713 1100 
L 3047 1100 
L 3047 0 
L 2419 0 
L 2419 1100 
L 313 1100 
L 313 1709 
L 2253 4666 
z
" transform="scale(0.015625)"/>
        <path id="DejaVuSans-30" d="M 2034 4250 
Q 1547 4250 1301 3770 
Q 1056 3291 1056 2328 
Q 1056 1369 1301 889 
Q 1547 409 2034 409 
Q 2525 409 2770 889 
Q 3016 1369 3016 2328 
Q 3016 3291 2770 3770 
Q 2525 4250 2034 4250 
z
M 2034 4750 
Q 2819 4750 3233 4129 
Q 3647 3509 3647 2328 
Q 3647 1150 3233 529 
Q 2819 -91 2034 -91 
Q 1250 -91 836 529 
Q 422 1150 422 2328 
Q 422 3509 836 4129 
Q 1250 4750 2034 4750 
z
" transform="scale(0.015625)"/>
       </defs>
       <use xlink:href="#DejaVuSans-31"/>
       <use xlink:href="#DejaVuSans-39" transform="translate(63.623047 0)"/>
       <use xlink:href="#DejaVuSans-34" transform="translate(127.246094 0)"/>
       <use xlink:href="#DejaVuSans-30" transform="translate(190.869141 0)"/>
      </g>
     </g>
    </g>
    <g id="xtick_2">
     <g id="line2d_3">
      <path d="M 89.802381 372.102354 
L 89.802381 41.6 
" clip-path="url(#pdd6236ed7f)" style="fill: none; stroke-dasharray: 2.96,1.28; stroke-dashoffset: 0; stroke: #b0b0b0; stroke-opacity: 0.6; stroke-width: 0.8"/>
     </g>
     <g id="line2d_4">
      <g>
       <use xlink:href="#mc8d4238122" x="89.802381" y="372.102354" style="stroke: #000000; stroke-width: 0.8"/>
      </g>
     </g>
     <g id="text_2">
      <!-- 1945 -->
      <g transform="translate(82.75562 402.471128) rotate(-45) scale(0.1 -0.1)">
       <defs>
        <path id="DejaVuSans-35" d="M 691 4666 
L 3169 4666 
L 3169 4134 
L 1269 4134 
L 1269 2991 
Q 1406 3038 1543 3061 
Q 1681 3084 1819 3084 
Q 2600 3084 3056 2656 
Q 3513 2228 3513 1497 
Q 3513 744 3044 326 
Q 2575 -91 1722 -91 
Q 1428 -91 1123 -41 
Q 819 9 494 109 
L 494 744 
Q 775 591 1075 516 
Q 1375 441 1709 441 
Q 2250 441 2565 725 
Q 2881 1009 2881 1497 
Q 2881 1984 2565 2268 
Q 2250 2553 1709 2553 
Q 1456 2553 1204 2497 
Q 953 2441 691 2322 
L 691 4666 
z
" transform="scale(0.015625)"/>
       </defs>
       <use xlink:href="#DejaVuSans-31"/>
       <use xlink:href="#DejaVuSans-39" transform="translate(63.623047 0)"/>
       <use xlink:href="#DejaVuSans-34" transform="translate(127.246094 0)"/>
       <use xlink:href="#DejaVuSans-35" transform="translate(190.869141 0)"/>
      </g>
     </g>
    </g>
    <g id="xtick_3">
     <g id="line2d_5">
      <path d="M 129.004762 372.102354 
L 129.004762 41.6 
" clip-path="url(#pdd6236ed7f)" style="fill: none; stroke-dasharray: 2.96,1.28; stroke-dashoffset: 0; stroke: #b0b0b0; stroke-opacity: 0.6; stroke-width: 0.8"/>
     </g>
     <g id="line2d_6">
      <g>
       <use xlink:href="#mc8d4238122" x="129.004762" y="372.102354" style="stroke: #000000; stroke-width: 0.8"/>
      </g>
     </g>
     <g id="text_3">
      <!-- 1950 -->
      <g transform="translate(121.958001 402.471128) rotate(-45) scale(0.1 -0.1)">
       <use xlink:href="#DejaVuSans-31"/>
       <use xlink:href="#DejaVuSans-39" transform="translate(63.623047 0)"/>
       <use xlink:href="#DejaVuSans-35" transform="translate(127.246094 0)"/>
       <use xlink:href="#DejaVuSans-30" transform="translate(190.869141 0)"/>
      </g>
     </g>
    </g>
    <g id="xtick_4">
     <g id="line2d_7">
      <path d="M 168.207143 372.102354 
L 168.207143 41.6 
" clip-path="url(#pdd6236ed7f)" style="fill: none; stroke-dasharray: 2.96,1.28; stroke-dashoffset: 0; stroke: #b0b0b0; stroke-opacity: 0.6; stroke-width: 0.8"/>
     </g>
     <g id="line2d_8">
      <g>
       <use xlink:href="#mc8d4238122" x="168.207143" y="372.102354" style="stroke: #000000; stroke-width: 0.8"/>
      </g>
     </g>
     <g id="text_4">
      <!-- 1955 -->
      <g transform="translate(161.160382 402.471128) rotate(-45) scale(0.1 -0.1)">
       <use xlink:href="#DejaVuSans-31"/>
       <use xlink:href="#DejaVuSans-39" transform="translate(63.623047 0)"/>
       <use xlink:href="#DejaVuSans-35" transform="translate(127.246094 0)"/>
       <use xlink:href="#DejaVuSans-35" transform="translate(190.869141 0)"/>
      </g>
     </g>
    </g>
    <g id="xtick_5">
     <g id="line2d_9">
      <path d="M 207.409524 372.102354 
L 207.409524 41.6 
" clip-path="url(#pdd6236ed7f)" style="fill: none; stroke-dasharray: 2.96,1.28; stroke-dashoffset: 0; stroke: #b0b0b0; stroke-opacity: 0.6; stroke-width: 0.8"/>
     </g>
     <g id="line2d_10">
      <g>
       <use xlink:href="#mc8d4238122" x="207.409524" y="372.102354" style="stroke: #000000; stroke-width: 0.8"/>
      </g>
     </g>
     <g id="text_5">
      <!-- 1960 -->
      <g transform="translate(200.362763 402.471128) rotate(-45) scale(0.1 -0.1)">
       <defs>
        <path id="DejaVuSans-36" d="M 2113 2584 
Q 1688 2584 1439 2293 
Q 1191 2003 1191 1497 
Q 1191 994 1439 701 
Q 1688 409 2113 409 
Q 2538 409 2786 701 
Q 3034 994 3034 1497 
Q 3034 2003 2786 2293 
Q 2538 2584 2113 2584 
z
M 3366 4563 
L 3366 3988 
Q 3128 4100 2886 4159 
Q 2644 4219 2406 4219 
Q 1781 4219 1451 3797 
Q 1122 3375 1075 2522 
Q 1259 2794 1537 2939 
Q 1816 3084 2150 3084 
Q 2853 3084 3261 2657 
Q 3669 2231 3669 1497 
Q 3669 778 3244 343 
Q 2819 -91 2113 -91 
Q 1303 -91 875 529 
Q 447 1150 447 2328 
Q 447 3434 972 4092 
Q 1497 4750 2381 4750 
Q 2619 4750 2861 4703 
Q 3103 4656 3366 4563 
z
" transform="scale(0.015625)"/>
       </defs>
       <use xlink:href="#DejaVuSans-31"/>
       <use xlink:href="#DejaVuSans-39" transform="translate(63.623047 0)"/>
       <use xlink:href="#DejaVuSans-36" transform="translate(127.246094 0)"/>
       <use xlink:href="#DejaVuSans-30" transform="translate(190.869141 0)"/>
      </g>
     </g>
    </g>
    <g id="xtick_6">
     <g id="line2d_11">
      <path d="M 246.611905 372.102354 
L 246.611905 41.6 
" clip-path="url(#pdd6236ed7f)" style="fill: none; stroke-dasharray: 2.96,1.28; stroke-dashoffset: 0; stroke: #b0b0b0; stroke-opacity: 0.6; stroke-width: 0.8"/>
     </g>
     <g id="line2d_12">
      <g>
       <use xlink:href="#mc8d4238122" x="246.611905" y="372.102354" style="stroke: #000000; stroke-width: 0.8"/>
      </g>
     </g>
     <g id="text_6">
      <!-- 1965 -->
      <g transform="translate(239.565144 402.471128) rotate(-45) scale(0.1 -0.1)">
       <use xlink:href="#DejaVuSans-31"/>
       <use xlink:href="#DejaVuSans-39" transform="translate(63.623047 0)"/>
       <use xlink:href="#DejaVuSans-36" transform="translate(127.246094 0)"/>
       <use xlink:href="#DejaVuSans-35" transform="translate(190.869141 0)"/>
      </g>
     </g>
    </g>
    <g id="xtick_7">
     <g id="line2d_13">
      <path d="M 285.814286 372.102354 
L 285.814286 41.6 
" clip-path="url(#pdd6236ed7f)" style="fill: none; stroke-dasharray: 2.96,1.28; stroke-dashoffset: 0; stroke: #b0b0b0; stroke-opacity: 0.6; stroke-width: 0.8"/>
     </g>
     <g id="line2d_14">
      <g>
       <use xlink:href="#mc8d4238122" x="285.814286" y="372.102354" style="stroke: #000000; stroke-width: 0.8"/>
      </g>
     </g>
     <g id="text_7">
      <!-- 1970 -->
      <g transform="translate(278.767525 402.471128) rotate(-45) scale(0.1 -0.1)">
       <defs>
        <path id="DejaVuSans-37" d="M 525 4666 
L 3525 4666 
L 3525 4397 
L 1831 0 
L 1172 0 
L 2766 4134 
L 525 4134 
L 525 4666 
z
" transform="scale(0.015625)"/>
       </defs>
       <use xlink:href="#DejaVuSans-31"/>
       <use xlink:href="#DejaVuSans-39" transform="translate(63.623047 0)"/>
       <use xlink:href="#DejaVuSans-37" transform="translate(127.246094 0)"/>
       <use xlink:href="#DejaVuSans-30" transform="translate(190.869141 0)"/>
      </g>
     </g>
    </g>
    <g id="xtick_8">
     <g id="line2d_15">
      <path d="M 325.016667 372.102354 
L 325.016667 41.6 
" clip-path="url(#pdd6236ed7f)" style="fill: none; stroke-dasharray: 2.96,1.28; stroke-dashoffset: 0; stroke: #b0b0b0; stroke-opacity: 0.6; stroke-width: 0.8"/>
     </g>
     <g id="line2d_16">
      <g>
       <use xlink:href="#mc8d4238122" x="325.016667" y="372.102354" style="stroke: #000000; stroke-width: 0.8"/>
      </g>
     </g>
     <g id="text_8">
      <!-- 1975 -->
      <g transform="translate(317.969906 402.471128) rotate(-45) scale(0.1 -0.1)">
       <use xlink:href="#DejaVuSans-31"/>
       <use xlink:href="#DejaVuSans-39" transform="translate(63.623047 0)"/>
       <use xlink:href="#DejaVuSans-37" transform="translate(127.246094 0)"/>
       <use xlink:href="#DejaVuSans-35" transform="translate(190.869141 0)"/>
      </g>
     </g>
    </g>
    <g id="xtick_9">
     <g id="line2d_17">
      <path d="M 364.219048 372.102354 
L 364.219048 41.6 
" clip-path="url(#pdd6236ed7f)" style="fill: none; stroke-dasharray: 2.96,1.28; stroke-dashoffset: 0; stroke: #b0b0b0; stroke-opacity: 0.6; stroke-width: 0.8"/>
     </g>
     <g id="line2d_18">
      <g>
       <use xlink:href="#mc8d4238122" x="364.219048" y="372.102354" style="stroke: #000000; stroke-width: 0.8"/>
      </g>
     </g>
     <g id="text_9">
      <!-- 1980 -->
      <g transform="translate(357.172287 402.471128) rotate(-45) scale(0.1 -0.1)">
       <defs>
        <path id="DejaVuSans-38" d="M 2034 2216 
Q 1584 2216 1326 1975 
Q 1069 1734 1069 1313 
Q 1069 891 1326 650 
Q 1584 409 2034 409 
Q 2484 409 2743 651 
Q 3003 894 3003 1313 
Q 3003 1734 2745 1975 
Q 2488 2216 2034 2216 
z
M 1403 2484 
Q 997 2584 770 2862 
Q 544 3141 544 3541 
Q 544 4100 942 4425 
Q 1341 4750 2034 4750 
Q 2731 4750 3128 4425 
Q 3525 4100 3525 3541 
Q 3525 3141 3298 2862 
Q 3072 2584 2669 2484 
Q 3125 2378 3379 2068 
Q 3634 1759 3634 1313 
Q 3634 634 3220 271 
Q 2806 -91 2034 -91 
Q 1263 -91 848 271 
Q 434 634 434 1313 
Q 434 1759 690 2068 
Q 947 2378 1403 2484 
z
M 1172 3481 
Q 1172 3119 1398 2916 
Q 1625 2713 2034 2713 
Q 2441 2713 2670 2916 
Q 2900 3119 2900 3481 
Q 2900 3844 2670 4047 
Q 2441 4250 2034 4250 
Q 1625 4250 1398 4047 
Q 1172 3844 1172 3481 
z
" transform="scale(0.015625)"/>
       </defs>
       <use xlink:href="#DejaVuSans-31"/>
       <use xlink:href="#DejaVuSans-39" transform="translate(63.623047 0)"/>
       <use xlink:href="#DejaVuSans-38" transform="translate(127.246094 0)"/>
       <use xlink:href="#DejaVuSans-30" transform="translate(190.869141 0)"/>
      </g>
     </g>
    </g>
    <g id="xtick_10">
     <g id="line2d_19">
      <path d="M 403.421429 372.102354 
L 403.421429 41.6 
" clip-path="url(#pdd6236ed7f)" style="fill: none; stroke-dasharray: 2.96,1.28; stroke-dashoffset: 0; stroke: #b0b0b0; stroke-opacity: 0.6; stroke-width: 0.8"/>
     </g>
     <g id="line2d_20">
      <g>
       <use xlink:href="#mc8d4238122" x="403.421429" y="372.102354" style="stroke: #000000; stroke-width: 0.8"/>
      </g>
     </g>
     <g id="text_10">
      <!-- 1985 -->
      <g transform="translate(396.374668 402.471128) rotate(-45) scale(0.1 -0.1)">
       <use xlink:href="#DejaVuSans-31"/>
       <use xlink:href="#DejaVuSans-39" transform="translate(63.623047 0)"/>
       <use xlink:href="#DejaVuSans-38" transform="translate(127.246094 0)"/>
       <use xlink:href="#DejaVuSans-35" transform="translate(190.869141 0)"/>
      </g>
     </g>
    </g>
    <g id="xtick_11">
     <g id="line2d_21">
      <path d="M 442.62381 372.102354 
L 442.62381 41.6 
" clip-path="url(#pdd6236ed7f)" style="fill: none; stroke-dasharray: 2.96,1.28; stroke-dashoffset: 0; stroke: #b0b0b0; stroke-opacity: 0.6; stroke-width: 0.8"/>
     </g>
     <g id="line2d_22">
      <g>
       <use xlink:href="#mc8d4238122" x="442.62381" y="372.102354" style="stroke: #000000; stroke-width: 0.8"/>
      </g>
     </g>
     <g id="text_11">
      <!-- 1990 -->
      <g transform="translate(435.577049 402.471128) rotate(-45) scale(0.1 -0.1)">
       <use xlink:href="#DejaVuSans-31"/>
       <use xlink:href="#DejaVuSans-39" transform="translate(63.623047 0)"/>
       <use xlink:href="#DejaVuSans-39" transform="translate(127.246094 0)"/>
       <use xlink:href="#DejaVuSans-30" transform="translate(190.869141 0)"/>
      </g>
     </g>
    </g>
    <g id="xtick_12">
     <g id="line2d_23">
      <path d="M 481.82619 372.102354 
L 481.82619 41.6 
" clip-path="url(#pdd6236ed7f)" style="fill: none; stroke-dasharray: 2.96,1.28; stroke-dashoffset: 0; stroke: #b0b0b0; stroke-opacity: 0.6; stroke-width: 0.8"/>
     </g>
     <g id="line2d_24">
      <g>
       <use xlink:href="#mc8d4238122" x="481.82619" y="372.102354" style="stroke: #000000; stroke-width: 0.8"/>
      </g>
     </g>
     <g id="text_12">
      <!-- 1995 -->
      <g transform="translate(474.779429 402.471128) rotate(-45) scale(0.1 -0.1)">
       <use xlink:href="#DejaVuSans-31"/>
       <use xlink:href="#DejaVuSans-39" transform="translate(63.623047 0)"/>
       <use xlink:href="#DejaVuSans-39" transform="translate(127.246094 0)"/>
       <use xlink:href="#DejaVuSans-35" transform="translate(190.869141 0)"/>
      </g>
     </g>
    </g>
    <g id="xtick_13">
     <g id="line2d_25">
      <path d="M 521.028571 372.102354 
L 521.028571 41.6 
" clip-path="url(#pdd6236ed7f)" style="fill: none; stroke-dasharray: 2.96,1.28; stroke-dashoffset: 0; stroke: #b0b0b0; stroke-opacity: 0.6; stroke-width: 0.8"/>
     </g>
     <g id="line2d_26">
      <g>
       <use xlink:href="#mc8d4238122" x="521.028571" y="372.102354" style="stroke: #000000; stroke-width: 0.8"/>
      </g>
     </g>
     <g id="text_13">
      <!-- 2000 -->
      <g transform="translate(513.98181 402.471128) rotate(-45) scale(0.1 -0.1)">
       <defs>
        <path id="DejaVuSans-32" d="M 1228 531 
L 3431 531 
L 3431 0 
L 469 0 
L 469 531 
Q 828 903 1448 1529 
Q 2069 2156 2228 2338 
Q 2531 2678 2651 2914 
Q 2772 3150 2772 3378 
Q 2772 3750 2511 3984 
Q 2250 4219 1831 4219 
Q 1534 4219 1204 4116 
Q 875 4013 500 3803 
L 500 4441 
Q 881 4594 1212 4672 
Q 1544 4750 1819 4750 
Q 2544 4750 2975 4387 
Q 3406 4025 3406 3419 
Q 3406 3131 3298 2873 
Q 3191 2616 2906 2266 
Q 2828 2175 2409 1742 
Q 1991 1309 1228 531 
z
" transform="scale(0.015625)"/>
       </defs>
       <use xlink:href="#DejaVuSans-32"/>
       <use xlink:href="#DejaVuSans-30" transform="translate(63.623047 0)"/>
       <use xlink:href="#DejaVuSans-30" transform="translate(127.246094 0)"/>
       <use xlink:href="#DejaVuSans-30" transform="translate(190.869141 0)"/>
      </g>
     </g>
    </g>
    <g id="xtick_14">
     <g id="line2d_27">
      <path d="M 560.230952 372.102354 
L 560.230952 41.6 
" clip-path="url(#pdd6236ed7f)" style="fill: none; stroke-dasharray: 2.96,1.28; stroke-dashoffset: 0; stroke: #b0b0b0; stroke-opacity: 0.6; stroke-width: 0.8"/>
     </g>
     <g id="line2d_28">
      <g>
       <use xlink:href="#mc8d4238122" x="560.230952" y="372.102354" style="stroke: #000000; stroke-width: 0.8"/>
      </g>
     </g>
     <g id="text_14">
      <!-- 2005 -->
      <g transform="translate(553.184191 402.471128) rotate(-45) scale(0.1 -0.1)">
       <use xlink:href="#DejaVuSans-32"/>
       <use xlink:href="#DejaVuSans-30" transform="translate(63.623047 0)"/>
       <use xlink:href="#DejaVuSans-30" transform="translate(127.246094 0)"/>
       <use xlink:href="#DejaVuSans-35" transform="translate(190.869141 0)"/>
      </g>
     </g>
    </g>
    <g id="xtick_15">
     <g id="line2d_29">
      <path d="M 599.433333 372.102354 
L 599.433333 41.6 
" clip-path="url(#pdd6236ed7f)" style="fill: none; stroke-dasharray: 2.96,1.28; stroke-dashoffset: 0; stroke: #b0b0b0; stroke-opacity: 0.6; stroke-width: 0.8"/>
     </g>
     <g id="line2d_30">
      <g>
       <use xlink:href="#mc8d4238122" x="599.433333" y="372.102354" style="stroke: #000000; stroke-width: 0.8"/>
      </g>
     </g>
     <g id="text_15">
      <!-- 2010 -->
      <g transform="translate(592.386572 402.471128) rotate(-45) scale(0.1 -0.1)">
       <use xlink:href="#DejaVuSans-32"/>
       <use xlink:href="#DejaVuSans-30" transform="translate(63.623047 0)"/>
       <use xlink:href="#DejaVuSans-31" transform="translate(127.246094 0)"/>
       <use xlink:href="#DejaVuSans-30" transform="translate(190.869141 0)"/>
      </g>
     </g>
    </g>
    <g id="xtick_16">
     <g id="line2d_31">
      <path d="M 638.635714 372.102354 
L 638.635714 41.6 
" clip-path="url(#pdd6236ed7f)" style="fill: none; stroke-dasharray: 2.96,1.28; stroke-dashoffset: 0; stroke: #b0b0b0; stroke-opacity: 0.6; stroke-width: 0.8"/>
     </g>
     <g id="line2d_32">
      <g>
       <use xlink:href="#mc8d4238122" x="638.635714" y="372.102354" style="stroke: #000000; stroke-width: 0.8"/>
      </g>
     </g>
     <g id="text_16">
      <!-- 2015 -->
      <g transform="translate(631.588953 402.471128) rotate(-45) scale(0.1 -0.1)">
       <use xlink:href="#DejaVuSans-32"/>
       <use xlink:href="#DejaVuSans-30" transform="translate(63.623047 0)"/>
       <use xlink:href="#DejaVuSans-31" transform="translate(127.246094 0)"/>
       <use xlink:href="#DejaVuSans-35" transform="translate(190.869141 0)"/>
      </g>
     </g>
    </g>
    <g id="xtick_17">
     <g id="line2d_33">
      <path d="M 677.838095 372.102354 
L 677.838095 41.6 
" clip-path="url(#pdd6236ed7f)" style="fill: none; stroke-dasharray: 2.96,1.28; stroke-dashoffset: 0; stroke: #b0b0b0; stroke-opacity: 0.6; stroke-width: 0.8"/>
     </g>
     <g id="line2d_34">
      <g>
       <use xlink:href="#mc8d4238122" x="677.838095" y="372.102354" style="stroke: #000000; stroke-width: 0.8"/>
      </g>
     </g>
     <g id="text_17">
      <!-- 2020 -->
      <g transform="translate(670.791334 402.471128) rotate(-45) scale(0.1 -0.1)">
       <use xlink:href="#DejaVuSans-32"/>
       <use xlink:href="#DejaVuSans-30" transform="translate(63.623047 0)"/>
       <use xlink:href="#DejaVuSans-32" transform="translate(127.246094 0)"/>
       <use xlink:href="#DejaVuSans-30" transform="translate(190.869141 0)"/>
      </g>
     </g>
    </g>
    <g id="text_18">
     <!-- Year -->
     <g transform="translate(367.195 417.059814) scale(0.12 -0.12)">
      <defs>
       <path id="DejaVuSans-59" d="M -13 4666 
L 666 4666 
L 1959 2747 
L 3244 4666 
L 3922 4666 
L 2272 2222 
L 2272 0 
L 1638 0 
L 1638 2222 
L -13 4666 
z
" transform="scale(0.015625)"/>
       <path id="DejaVuSans-65" d="M 3597 1894 
L 3597 1613 
L 953 1613 
Q 991 1019 1311 708 
Q 1631 397 2203 397 
Q 2534 397 2845 478 
Q 3156 559 3463 722 
L 3463 178 
Q 3153 47 2828 -22 
Q 2503 -91 2169 -91 
Q 1331 -91 842 396 
Q 353 884 353 1716 
Q 353 2575 817 3079 
Q 1281 3584 2069 3584 
Q 2775 3584 3186 3129 
Q 3597 2675 3597 1894 
z
M 3022 2063 
Q 3016 2534 2758 2815 
Q 2500 3097 2075 3097 
Q 1594 3097 1305 2825 
Q 1016 2553 972 2059 
L 3022 2063 
z
" transform="scale(0.015625)"/>
       <path id="DejaVuSans-61" d="M 2194 1759 
Q 1497 1759 1228 1600 
Q 959 1441 959 1056 
Q 959 750 1161 570 
Q 1363 391 1709 391 
Q 2188 391 2477 730 
Q 2766 1069 2766 1631 
L 2766 1759 
L 2194 1759 
z
M 3341 1997 
L 3341 0 
L 2766 0 
L 2766 531 
Q 2569 213 2275 61 
Q 1981 -91 1556 -91 
Q 1019 -91 701 211 
Q 384 513 384 1019 
Q 384 1609 779 1909 
Q 1175 2209 1959 2209 
L 2766 2209 
L 2766 2266 
Q 2766 2663 2505 2880 
Q 2244 3097 1772 3097 
Q 1472 3097 1187 3025 
Q 903 2953 641 2809 
L 641 3341 
Q 956 3463 1253 3523 
Q 1550 3584 1831 3584 
Q 2591 3584 2966 3190 
Q 3341 2797 3341 1997 
z
" transform="scale(0.015625)"/>
       <path id="DejaVuSans-72" d="M 2631 2963 
Q 2534 3019 2420 3045 
Q 2306 3072 2169 3072 
Q 1681 3072 1420 2755 
Q 1159 2438 1159 1844 
L 1159 0 
L 581 0 
L 581 3500 
L 1159 3500 
L 1159 2956 
Q 1341 3275 1631 3429 
Q 1922 3584 2338 3584 
Q 2397 3584 2469 3576 
Q 2541 3569 2628 3553 
L 2631 2963 
z
" transform="scale(0.015625)"/>
      </defs>
      <use xlink:href="#DejaVuSans-59"/>
      <use xlink:href="#DejaVuSans-65" transform="translate(47.833984 0)"/>
      <use xlink:href="#DejaVuSans-61" transform="translate(109.357422 0)"/>
      <use xlink:href="#DejaVuSans-72" transform="translate(170.636719 0)"/>
     </g>
    </g>
   </g>
   <g id="matplotlib.axis_2">
    <g id="ytick_1">
     <g id="line2d_35">
      <path d="M 50.6 350.068864 
L 709.2 350.068864 
" clip-path="url(#pdd6236ed7f)" style="fill: none; stroke-dasharray: 2.96,1.28; stroke-dashoffset: 0; stroke: #b0b0b0; stroke-opacity: 0.6; stroke-width: 0.8"/>
     </g>
     <g id="line2d_36">
      <defs>
       <path id="mf7862230bb" d="M 0 0 
L -3.5 0 
" style="stroke: #000000; stroke-width: 0.8"/>
      </defs>
      <g>
       <use xlink:href="#mf7862230bb" x="50.6" y="350.068864" style="stroke: #000000; stroke-width: 0.8"/>
      </g>
     </g>
     <g id="text_19">
      <!-- 0.0 -->
      <g transform="translate(27.696875 353.868082) scale(0.1 -0.1)">
       <defs>
        <path id="DejaVuSans-2e" d="M 684 794 
L 1344 794 
L 1344 0 
L 684 0 
L 684 794 
z
" transform="scale(0.015625)"/>
       </defs>
       <use xlink:href="#DejaVuSans-30"/>
       <use xlink:href="#DejaVuSans-2e" transform="translate(63.623047 0)"/>
       <use xlink:href="#DejaVuSans-30" transform="translate(95.410156 0)"/>
      </g>
     </g>
    </g>
    <g id="ytick_2">
     <g id="line2d_37">
      <path d="M 50.6 306.001883 
L 709.2 306.001883 
" clip-path="url(#pdd6236ed7f)" style="fill: none; stroke-dasharray: 2.96,1.28; stroke-dashoffset: 0; stroke: #b0b0b0; stroke-opacity: 0.6; stroke-width: 0.8"/>
     </g>
     <g id="line2d_38">
      <g>
       <use xlink:href="#mf7862230bb" x="50.6" y="306.001883" style="stroke: #000000; stroke-width: 0.8"/>
      </g>
     </g>
     <g id="text_20">
      <!-- 0.5 -->
      <g transform="translate(27.696875 309.801102) scale(0.1 -0.1)">
       <use xlink:href="#DejaVuSans-30"/>
       <use xlink:href="#DejaVuSans-2e" transform="translate(63.623047 0)"/>
       <use xlink:href="#DejaVuSans-35" transform="translate(95.410156 0)"/>
      </g>
     </g>
    </g>
    <g id="ytick_3">
     <g id="line2d_39">
      <path d="M 50.6 261.934903 
L 709.2 261.934903 
" clip-path="url(#pdd6236ed7f)" style="fill: none; stroke-dasharray: 2.96,1.28; stroke-dashoffset: 0; stroke: #b0b0b0; stroke-opacity: 0.6; stroke-width: 0.8"/>
     </g>
     <g id="line2d_40">
      <g>
       <use xlink:href="#mf7862230bb" x="50.6" y="261.934903" style="stroke: #000000; stroke-width: 0.8"/>
      </g>
     </g>
     <g id="text_21">
      <!-- 1.0 -->
      <g transform="translate(27.696875 265.734121) scale(0.1 -0.1)">
       <use xlink:href="#DejaVuSans-31"/>
       <use xlink:href="#DejaVuSans-2e" transform="translate(63.623047 0)"/>
       <use xlink:href="#DejaVuSans-30" transform="translate(95.410156 0)"/>
      </g>
     </g>
    </g>
    <g id="ytick_4">
     <g id="line2d_41">
      <path d="M 50.6 217.867922 
L 709.2 217.867922 
" clip-path="url(#pdd6236ed7f)" style="fill: none; stroke-dasharray: 2.96,1.28; stroke-dashoffset: 0; stroke: #b0b0b0; stroke-opacity: 0.6; stroke-width: 0.8"/>
     </g>
     <g id="line2d_42">
      <g>
       <use xlink:href="#mf7862230bb" x="50.6" y="217.867922" style="stroke: #000000; stroke-width: 0.8"/>
      </g>
     </g>
     <g id="text_22">
      <!-- 1.5 -->
      <g transform="translate(27.696875 221.667141) scale(0.1 -0.1)">
       <use xlink:href="#DejaVuSans-31"/>
       <use xlink:href="#DejaVuSans-2e" transform="translate(63.623047 0)"/>
       <use xlink:href="#DejaVuSans-35" transform="translate(95.410156 0)"/>
      </g>
     </g>
    </g>
    <g id="ytick_5">
     <g id="line2d_43">
      <path d="M 50.6 173.800942 
L 709.2 173.800942 
" clip-path="url(#pdd6236ed7f)" style="fill: none; stroke-dasharray: 2.96,1.28; stroke-dashoffset: 0; stroke: #b0b0b0; stroke-opacity: 0.6; stroke-width: 0.8"/>
     </g>
     <g id="line2d_44">
      <g>
       <use xlink:href="#mf7862230bb" x="50.6" y="173.800942" style="stroke: #000000; stroke-width: 0.8"/>
      </g>
     </g>
     <g id="text_23">
      <!-- 2.0 -->
      <g transform="translate(27.696875 177.60016) scale(0.1 -0.1)">
       <use xlink:href="#DejaVuSans-32"/>
       <use xlink:href="#DejaVuSans-2e" transform="translate(63.623047 0)"/>
       <use xlink:href="#DejaVuSans-30" transform="translate(95.410156 0)"/>
      </g>
     </g>
    </g>
    <g id="ytick_6">
     <g id="line2d_45">
      <path d="M 50.6 129.733961 
L 709.2 129.733961 
" clip-path="url(#pdd6236ed7f)" style="fill: none; stroke-dasharray: 2.96,1.28; stroke-dashoffset: 0; stroke: #b0b0b0; stroke-opacity: 0.6; stroke-width: 0.8"/>
     </g>
     <g id="line2d_46">
      <g>
       <use xlink:href="#mf7862230bb" x="50.6" y="129.733961" style="stroke: #000000; stroke-width: 0.8"/>
      </g>
     </g>
     <g id="text_24">
      <!-- 2.5 -->
      <g transform="translate(27.696875 133.53318) scale(0.1 -0.1)">
       <use xlink:href="#DejaVuSans-32"/>
       <use xlink:href="#DejaVuSans-2e" transform="translate(63.623047 0)"/>
       <use xlink:href="#DejaVuSans-35" transform="translate(95.410156 0)"/>
      </g>
     </g>
    </g>
    <g id="ytick_7">
     <g id="line2d_47">
      <path d="M 50.6 85.666981 
L 709.2 85.666981 
" clip-path="url(#pdd6236ed7f)" style="fill: none; stroke-dasharray: 2.96,1.28; stroke-dashoffset: 0; stroke: #b0b0b0; stroke-opacity: 0.6; stroke-width: 0.8"/>
     </g>
     <g id="line2d_48">
      <g>
       <use xlink:href="#mf7862230bb" x="50.6" y="85.666981" style="stroke: #000000; stroke-width: 0.8"/>
      </g>
     </g>
     <g id="text_25">
      <!-- 3.0 -->
      <g transform="translate(27.696875 89.466199) scale(0.1 -0.1)">
       <defs>
        <path id="DejaVuSans-33" d="M 2597 2516 
Q 3050 2419 3304 2112 
Q 3559 1806 3559 1356 
Q 3559 666 3084 287 
Q 2609 -91 1734 -91 
Q 1441 -91 1130 -33 
Q 819 25 488 141 
L 488 750 
Q 750 597 1062 519 
Q 1375 441 1716 441 
Q 2309 441 2620 675 
Q 2931 909 2931 1356 
Q 2931 1769 2642 2001 
Q 2353 2234 1838 2234 
L 1294 2234 
L 1294 2753 
L 1863 2753 
Q 2328 2753 2575 2939 
Q 2822 3125 2822 3475 
Q 2822 3834 2567 4026 
Q 2313 4219 1838 4219 
Q 1578 4219 1281 4162 
Q 984 4106 628 3988 
L 628 4550 
Q 988 4650 1302 4700 
Q 1616 4750 1894 4750 
Q 2613 4750 3031 4423 
Q 3450 4097 3450 3541 
Q 3450 3153 3228 2886 
Q 3006 2619 2597 2516 
z
" transform="scale(0.015625)"/>
       </defs>
       <use xlink:href="#DejaVuSans-33"/>
       <use xlink:href="#DejaVuSans-2e" transform="translate(63.623047 0)"/>
       <use xlink:href="#DejaVuSans-30" transform="translate(95.410156 0)"/>
      </g>
     </g>
    </g>
    <g id="ytick_8">
     <g id="line2d_49">
      <path d="M 50.6 41.6 
L 709.2 41.6 
" clip-path="url(#pdd6236ed7f)" style="fill: none; stroke-dasharray: 2.96,1.28; stroke-dashoffset: 0; stroke: #b0b0b0; stroke-opacity: 0.6; stroke-width: 0.8"/>
     </g>
     <g id="line2d_50">
      <g>
       <use xlink:href="#mf7862230bb" x="50.6" y="41.6" style="stroke: #000000; stroke-width: 0.8"/>
      </g>
     </g>
     <g id="text_26">
      <!-- 3.5 -->
      <g transform="translate(27.696875 45.399219) scale(0.1 -0.1)">
       <use xlink:href="#DejaVuSans-33"/>
       <use xlink:href="#DejaVuSans-2e" transform="translate(63.623047 0)"/>
       <use xlink:href="#DejaVuSans-35" transform="translate(95.410156 0)"/>
      </g>
     </g>
    </g>
    <g id="text_27">
     <!-- Temperature anomaly (°C) -->
     <g transform="translate(21.20125 286.429927) rotate(-90) scale(0.12 -0.12)">
      <defs>
       <path id="DejaVuSans-54" d="M -19 4666 
L 3928 4666 
L 3928 4134 
L 2272 4134 
L 2272 0 
L 1638 0 
L 1638 4134 
L -19 4134 
L -19 4666 
z
" transform="scale(0.015625)"/>
       <path id="DejaVuSans-6d" d="M 3328 2828 
Q 3544 3216 3844 3400 
Q 4144 3584 4550 3584 
Q 5097 3584 5394 3201 
Q 5691 2819 5691 2113 
L 5691 0 
L 5113 0 
L 5113 2094 
Q 5113 2597 4934 2840 
Q 4756 3084 4391 3084 
Q 3944 3084 3684 2787 
Q 3425 2491 3425 1978 
L 3425 0 
L 2847 0 
L 2847 2094 
Q 2847 2600 2669 2842 
Q 2491 3084 2119 3084 
Q 1678 3084 1418 2786 
Q 1159 2488 1159 1978 
L 1159 0 
L 581 0 
L 581 3500 
L 1159 3500 
L 1159 2956 
Q 1356 3278 1631 3431 
Q 1906 3584 2284 3584 
Q 2666 3584 2933 3390 
Q 3200 3197 3328 2828 
z
" transform="scale(0.015625)"/>
       <path id="DejaVuSans-70" d="M 1159 525 
L 1159 -1331 
L 581 -1331 
L 581 3500 
L 1159 3500 
L 1159 2969 
Q 1341 3281 1617 3432 
Q 1894 3584 2278 3584 
Q 2916 3584 3314 3078 
Q 3713 2572 3713 1747 
Q 3713 922 3314 415 
Q 2916 -91 2278 -91 
Q 1894 -91 1617 61 
Q 1341 213 1159 525 
z
M 3116 1747 
Q 3116 2381 2855 2742 
Q 2594 3103 2138 3103 
Q 1681 3103 1420 2742 
Q 1159 2381 1159 1747 
Q 1159 1113 1420 752 
Q 1681 391 2138 391 
Q 2594 391 2855 752 
Q 3116 1113 3116 1747 
z
" transform="scale(0.015625)"/>
       <path id="DejaVuSans-74" d="M 1172 4494 
L 1172 3500 
L 2356 3500 
L 2356 3053 
L 1172 3053 
L 1172 1153 
Q 1172 725 1289 603 
Q 1406 481 1766 481 
L 2356 481 
L 2356 0 
L 1766 0 
Q 1100 0 847 248 
Q 594 497 594 1153 
L 594 3053 
L 172 3053 
L 172 3500 
L 594 3500 
L 594 4494 
L 1172 4494 
z
" transform="scale(0.015625)"/>
       <path id="DejaVuSans-75" d="M 544 1381 
L 544 3500 
L 1119 3500 
L 1119 1403 
Q 1119 906 1312 657 
Q 1506 409 1894 409 
Q 2359 409 2629 706 
Q 2900 1003 2900 1516 
L 2900 3500 
L 3475 3500 
L 3475 0 
L 2900 0 
L 2900 538 
Q 2691 219 2414 64 
Q 2138 -91 1772 -91 
Q 1169 -91 856 284 
Q 544 659 544 1381 
z
M 1991 3584 
L 1991 3584 
z
" transform="scale(0.015625)"/>
       <path id="DejaVuSans-20" transform="scale(0.015625)"/>
       <path id="DejaVuSans-6e" d="M 3513 2113 
L 3513 0 
L 2938 0 
L 2938 2094 
Q 2938 2591 2744 2837 
Q 2550 3084 2163 3084 
Q 1697 3084 1428 2787 
Q 1159 2491 1159 1978 
L 1159 0 
L 581 0 
L 581 3500 
L 1159 3500 
L 1159 2956 
Q 1366 3272 1645 3428 
Q 1925 3584 2291 3584 
Q 2894 3584 3203 3211 
Q 3513 2838 3513 2113 
z
" transform="scale(0.015625)"/>
       <path id="DejaVuSans-6f" d="M 1959 3097 
Q 1497 3097 1228 2736 
Q 959 2375 959 1747 
Q 959 1119 1226 758 
Q 1494 397 1959 397 
Q 2419 397 2687 759 
Q 2956 1122 2956 1747 
Q 2956 2369 2687 2733 
Q 2419 3097 1959 3097 
z
M 1959 3584 
Q 2709 3584 3137 3096 
Q 3566 2609 3566 1747 
Q 3566 888 3137 398 
Q 2709 -91 1959 -91 
Q 1206 -91 779 398 
Q 353 888 353 1747 
Q 353 2609 779 3096 
Q 1206 3584 1959 3584 
z
" transform="scale(0.015625)"/>
       <path id="DejaVuSans-6c" d="M 603 4863 
L 1178 4863 
L 1178 0 
L 603 0 
L 603 4863 
z
" transform="scale(0.015625)"/>
       <path id="DejaVuSans-79" d="M 2059 -325 
Q 1816 -950 1584 -1140 
Q 1353 -1331 966 -1331 
L 506 -1331 
L 506 -850 
L 844 -850 
Q 1081 -850 1212 -737 
Q 1344 -625 1503 -206 
L 1606 56 
L 191 3500 
L 800 3500 
L 1894 763 
L 2988 3500 
L 3597 3500 
L 2059 -325 
z
" transform="scale(0.015625)"/>
       <path id="DejaVuSans-28" d="M 1984 4856 
Q 1566 4138 1362 3434 
Q 1159 2731 1159 2009 
Q 1159 1288 1364 580 
Q 1569 -128 1984 -844 
L 1484 -844 
Q 1016 -109 783 600 
Q 550 1309 550 2009 
Q 550 2706 781 3412 
Q 1013 4119 1484 4856 
L 1984 4856 
z
" transform="scale(0.015625)"/>
       <path id="DejaVuSans-b0" d="M 1600 4347 
Q 1350 4347 1178 4173 
Q 1006 4000 1006 3750 
Q 1006 3503 1178 3333 
Q 1350 3163 1600 3163 
Q 1850 3163 2022 3333 
Q 2194 3503 2194 3750 
Q 2194 3997 2020 4172 
Q 1847 4347 1600 4347 
z
M 1600 4750 
Q 1800 4750 1984 4673 
Q 2169 4597 2303 4453 
Q 2447 4313 2519 4134 
Q 2591 3956 2591 3750 
Q 2591 3338 2302 3052 
Q 2013 2766 1594 2766 
Q 1172 2766 890 3047 
Q 609 3328 609 3750 
Q 609 4169 896 4459 
Q 1184 4750 1600 4750 
z
" transform="scale(0.015625)"/>
       <path id="DejaVuSans-43" d="M 4122 4306 
L 4122 3641 
Q 3803 3938 3442 4084 
Q 3081 4231 2675 4231 
Q 1875 4231 1450 3742 
Q 1025 3253 1025 2328 
Q 1025 1406 1450 917 
Q 1875 428 2675 428 
Q 3081 428 3442 575 
Q 3803 722 4122 1019 
L 4122 359 
Q 3791 134 3420 21 
Q 3050 -91 2638 -91 
Q 1578 -91 968 557 
Q 359 1206 359 2328 
Q 359 3453 968 4101 
Q 1578 4750 2638 4750 
Q 3056 4750 3426 4639 
Q 3797 4528 4122 4306 
z
" transform="scale(0.015625)"/>
       <path id="DejaVuSans-29" d="M 513 4856 
L 1013 4856 
Q 1481 4119 1714 3412 
Q 1947 2706 1947 2009 
Q 1947 1309 1714 600 
Q 1481 -109 1013 -844 
L 513 -844 
Q 928 -128 1133 580 
Q 1338 1288 1338 2009 
Q 1338 2731 1133 3434 
Q 928 4138 513 4856 
z
" transform="scale(0.015625)"/>
      </defs>
      <use xlink:href="#DejaVuSans-54"/>
      <use xlink:href="#DejaVuSans-65" transform="translate(44.083984 0)"/>
      <use xlink:href="#DejaVuSans-6d" transform="translate(105.607422 0)"/>
      <use xlink:href="#DejaVuSans-70" transform="translate(203.019531 0)"/>
      <use xlink:href="#DejaVuSans-65" transform="translate(266.496094 0)"/>
      <use xlink:href="#DejaVuSans-72" transform="translate(328.019531 0)"/>
      <use xlink:href="#DejaVuSans-61" transform="translate(369.132812 0)"/>
      <use xlink:href="#DejaVuSans-74" transform="translate(430.412109 0)"/>
      <use xlink:href="#DejaVuSans-75" transform="translate(469.621094 0)"/>
      <use xlink:href="#DejaVuSans-72" transform="translate(533 0)"/>
      <use xlink:href="#DejaVuSans-65" transform="translate(571.863281 0)"/>
      <use xlink:href="#DejaVuSans-20" transform="translate(633.386719 0)"/>
      <use xlink:href="#DejaVuSans-61" transform="translate(665.173828 0)"/>
      <use xlink:href="#DejaVuSans-6e" transform="translate(726.453125 0)"/>
      <use xlink:href="#DejaVuSans-6f" transform="translate(789.832031 0)"/>
      <use xlink:href="#DejaVuSans-6d" transform="translate(851.013672 0)"/>
      <use xlink:href="#DejaVuSans-61" transform="translate(948.425781 0)"/>
      <use xlink:href="#DejaVuSans-6c" transform="translate(1009.705078 0)"/>
      <use xlink:href="#DejaVuSans-79" transform="translate(1037.488281 0)"/>
      <use xlink:href="#DejaVuSans-20" transform="translate(1096.667969 0)"/>
      <use xlink:href="#DejaVuSans-28" transform="translate(1128.455078 0)"/>
      <use xlink:href="#DejaVuSans-b0" transform="translate(1167.46875 0)"/>
      <use xlink:href="#DejaVuSans-43" transform="translate(1217.46875 0)"/>
      <use xlink:href="#DejaVuSans-29" transform="translate(1287.292969 0)"/>
     </g>
    </g>
   </g>
   <g id="line2d_51">
    <path d="M 50.6 350.068864 
L 58.440476 361.688087 
L 66.280952 316.112221 
L 74.121429 262.080143 
L 81.961905 255.727225 
L 89.802381 277.833335 
L 97.642857 311.601703 
L 105.483333 263.938681 
L 113.32381 298.234217 
L 121.164286 250.52816 
L 129.004762 266.636385 
L 136.845238 272.688064 
L 144.685714 285.673621 
L 152.52619 262.281866 
L 160.366667 263.94137 
L 168.207143 288.618772 
L 176.047619 317.309109 
L 183.888095 273.419644 
L 191.728571 253.685792 
L 199.569048 253.002625 
L 207.409524 238.217701 
L 215.25 219.376807 
L 223.090476 315.474778 
L 230.930952 345.45345 
L 238.771429 259.030097 
L 246.611905 307.161116 
L 254.452381 320.967013 
L 262.292857 261.684767 
L 270.133333 342.973606 
L 277.97381 308.436003 
L 285.814286 298.898557 
L 293.654762 324.697536 
L 301.495238 250.38561 
L 309.335714 288.954976 
L 317.17619 235.089655 
L 325.016667 269.245331 
L 332.857143 276.343278 
L 340.697619 269.156573 
L 348.538095 336.889652 
L 356.378571 300.827025 
L 364.219048 296.348783 
L 372.059524 306.198227 
L 379.9 258.276999 
L 387.740476 249.145688 
L 395.580952 266.916107 
L 403.421429 286.483202 
L 411.261905 278.304021 
L 419.102381 273.398127 
L 426.942857 245.339854 
L 434.783333 203.481064 
L 442.62381 200.293847 
L 450.464286 241.324229 
L 458.304762 254.885369 
L 466.145238 277.499821 
L 473.985714 245.186545 
L 481.82619 225.853449 
L 489.666667 254.226409 
L 497.507143 236.273095 
L 505.347619 232.088023 
L 513.188095 216.99648 
L 521.028571 178.90049 
L 528.869048 190.936606 
L 536.709524 188.416418 
L 544.55 179.373865 
L 552.390476 223.602224 
L 560.230952 183.9059 
L 568.071429 202.795207 
L 575.911905 163.354399 
L 583.752381 195.506296 
L 591.592857 213.733953 
L 599.433333 186.520226 
L 607.27381 194.917266 
L 615.114286 192.709076 
L 622.954762 187.770906 
L 630.795238 149.037472 
L 638.635714 162.988609 
L 646.47619 166.033276 
L 654.316667 138.792652 
L 662.157143 117.993704 
L 669.997619 144.674884 
L 677.838095 139.349406 
L 685.678571 152.574342 
L 693.519048 131.326225 
L 701.359524 111.492856 
L 709.2 124.325105 
" clip-path="url(#pdd6236ed7f)" style="fill: none; stroke-dasharray: 5.55,2.4; stroke-dashoffset: 0; stroke: #000000; stroke-width: 1.5"/>
   </g>
   <g id="line2d_52">
    <path d="M 50.6 297.074284 
L 58.440476 296.71926 
L 66.280952 296.351259 
L 74.121429 295.969808 
L 81.961905 295.574416 
L 89.802381 295.164572 
L 97.642857 294.739748 
L 105.483333 294.299398 
L 113.32381 293.842953 
L 121.164286 293.369826 
L 129.004762 292.879405 
L 136.845238 292.371061 
L 144.685714 291.844136 
L 152.52619 291.297953 
L 160.366667 290.731808 
L 168.207143 290.14497 
L 176.047619 289.536683 
L 183.888095 288.906165 
L 191.728571 288.252601 
L 199.569048 287.575149 
L 207.409524 286.872938 
L 215.25 286.145061 
L 223.090476 285.39058 
L 230.930952 284.608524 
L 238.771429 283.797885 
L 246.611905 282.957617 
L 254.452381 282.086637 
L 262.292857 281.183824 
L 270.133333 280.248014 
L 277.97381 279.278001 
L 285.814286 278.272534 
L 293.654762 277.230318 
L 301.495238 276.15001 
L 309.335714 275.030217 
L 317.17619 273.869497 
L 325.016667 272.666353 
L 332.857143 271.419235 
L 340.697619 270.126536 
L 348.538095 268.786589 
L 356.378571 267.397669 
L 364.219048 265.957984 
L 372.059524 264.46568 
L 379.9 262.918833 
L 387.740476 261.31545 
L 395.580952 259.653464 
L 403.421429 257.930734 
L 411.261905 256.145039 
L 419.102381 254.294078 
L 426.942857 252.375466 
L 434.783333 250.38673 
L 442.62381 248.325307 
L 450.464286 246.18854 
L 458.304762 243.973676 
L 466.145238 241.677861 
L 473.985714 239.298135 
L 481.82619 236.831431 
L 489.666667 234.274571 
L 497.507143 231.62426 
L 505.347619 228.877081 
L 513.188095 226.029495 
L 521.028571 223.077832 
L 528.869048 220.018287 
L 536.709524 216.846918 
L 544.55 213.559638 
L 552.390476 210.15221 
L 560.230952 206.620243 
L 568.071429 202.959185 
L 575.911905 199.164317 
L 583.752381 195.23075 
L 591.592857 191.153414 
L 599.433333 186.927053 
L 607.27381 182.546222 
L 615.114286 178.005275 
L 622.954762 173.298359 
L 630.795238 168.419409 
L 638.635714 163.362136 
L 646.47619 158.120024 
L 654.316667 152.686316 
L 662.157143 147.054009 
L 669.997619 141.215846 
L 677.838095 135.164301 
L 685.678571 128.891577 
L 693.519048 122.389589 
L 701.359524 115.649958 
L 709.2 108.663998 
" clip-path="url(#pdd6236ed7f)" style="fill: none; stroke: #1e90ff; stroke-width: 1.5; stroke-linecap: square"/>
   </g>
   <g id="line2d_53">
    <path d="M 89.802381 292.452531 
L 97.642857 284.930547 
L 105.483333 274.293881 
L 113.32381 267.67233 
L 121.164286 271.469979 
L 129.004762 275.840221 
L 136.845238 275.411193 
L 144.685714 268.39062 
L 152.52619 269.842981 
L 160.366667 264.672547 
L 168.207143 268.68948 
L 176.047619 269.873665 
L 183.888095 271.311842 
L 191.728571 270.928123 
L 199.569048 274.406562 
L 207.409524 276.274603 
L 215.25 271.752128 
L 223.090476 258.462248 
L 230.930952 253.654777 
L 238.771429 256.910811 
L 246.611905 262.463967 
L 254.452381 272.867245 
L 262.292857 286.632571 
L 270.133333 284.266186 
L 277.97381 277.769241 
L 285.814286 284.813159 
L 293.654762 284.667404 
L 301.495238 282.870822 
L 309.335714 288.866796 
L 317.17619 282.618711 
L 325.016667 278.109811 
L 332.857143 273.161896 
L 340.697619 262.501428 
L 348.538095 265.583104 
L 356.378571 263.203738 
L 364.219048 273.740688 
L 372.059524 278.323521 
L 379.9 282.238206 
L 387.740476 286.453437 
L 395.580952 279.008049 
L 403.421429 274.444148 
L 411.261905 269.791631 
L 419.102381 262.977651 
L 426.942857 265.957929 
L 434.783333 270.227221 
L 442.62381 268.020113 
L 450.464286 257.436425 
L 458.304762 244.844352 
L 466.145238 232.131235 
L 473.985714 229.827605 
L 481.82619 243.182715 
L 489.666667 256.309668 
L 497.507143 258.097109 
L 505.347619 255.663157 
L 513.188095 246.711159 
L 521.028571 243.830465 
L 528.869048 242.376444 
L 536.709524 228.639238 
L 544.55 215.135789 
L 552.390476 198.407772 
L 560.230952 187.865905 
" clip-path="url(#pdd6236ed7f)" style="fill: none; stroke: #ff8c00; stroke-width: 2; stroke-linecap: square"/>
   </g>
   <g id="line2d_54">
    <path d="M 89.802381 292.705441 
L 97.642857 284.881739 
L 105.483333 274.03774 
L 113.32381 267.954731 
L 121.164286 271.401199 
L 129.004762 275.485074 
L 136.845238 275.052405 
L 144.685714 268.208912 
L 152.52619 269.963731 
L 160.366667 265.250976 
L 168.207143 268.333255 
L 176.047619 269.331462 
L 183.888095 271.467001 
L 191.728571 270.998174 
L 199.569048 274.289452 
L 207.409524 276.672148 
L 215.25 271.939258 
L 223.090476 258.157247 
L 230.930952 254.353788 
L 238.771429 256.147859 
L 246.611905 263.360572 
L 254.452381 272.956433 
L 262.292857 287.063081 
L 270.133333 284.197584 
L 277.97381 277.642965 
L 285.814286 284.776964 
L 293.654762 284.985154 
L 301.495238 282.80304 
L 309.335714 288.791171 
L 317.17619 282.995832 
L 325.016667 278.206386 
L 332.857143 273.021489 
L 340.697619 262.401933 
L 348.538095 266.111911 
L 356.378571 263.441681 
L 364.219048 273.931174 
L 372.059524 278.455744 
L 379.9 282.498523 
L 387.740476 286.202045 
L 395.580952 278.968719 
L 403.421429 274.010986 
L 411.261905 270.409244 
L 419.102381 262.860321 
L 426.942857 266.289805 
L 434.783333 270.273832 
L 442.62381 268.497607 
L 450.464286 258.376463 
L 458.304762 243.917584 
L 466.145238 232.229701 
L 473.985714 230.881564 
L 481.82619 243.541791 
L 489.666667 256.169849 
L 497.507143 257.965873 
L 505.347619 255.797355 
L 513.188095 247.617692 
L 521.028571 241.987109 
L 528.869048 241.553048 
L 536.709524 228.973751 
L 544.55 214.619389 
L 552.390476 198.373017 
L 560.230952 189.553651 
" clip-path="url(#pdd6236ed7f)" style="fill: none; stroke: #9400d3; stroke-width: 2; stroke-linecap: square"/>
   </g>
   <g id="line2d_55">
    <path d="M 560.230952 187.865905 
L 568.071429 194.856235 
L 575.911905 197.545639 
L 583.752381 199.094196 
L 591.592857 202.865306 
L 599.433333 189.282208 
L 607.27381 193.231012 
L 615.114286 189.719757 
L 622.954762 203.73244 
L 630.795238 202.678093 
L 638.635714 189.788731 
L 646.47619 183.957109 
L 654.316667 170.272224 
L 662.157143 151.899601 
L 669.997619 127.57618 
L 677.838095 121.980079 
L 685.678571 103.497265 
L 693.519048 83.038934 
L 701.359524 84.837648 
L 709.2 98.953841 
" clip-path="url(#pdd6236ed7f)" style="fill: none; stroke: #ff8c00; stroke-width: 2; stroke-linecap: square"/>
   </g>
   <g id="line2d_56">
    <path d="M 560.230952 186.868681 
L 568.071429 194.356866 
L 575.911905 196.634252 
L 583.752381 199.234961 
L 591.592857 203.23573 
L 599.433333 188.057867 
L 607.27381 194.795182 
L 615.114286 190.263777 
L 622.954762 201.823776 
L 630.795238 202.22698 
L 638.635714 188.916659 
L 646.47619 184.853198 
L 654.316667 170.812064 
L 662.157143 151.415697 
L 669.997619 126.981099 
L 677.838095 123.827901 
L 685.678571 98.675884 
L 693.519048 84.012183 
L 701.359524 82.304012 
L 709.2 100.185988 
" clip-path="url(#pdd6236ed7f)" style="fill: none; stroke: #9400d3; stroke-width: 2; stroke-linecap: square"/>
   </g>
   <g id="LineCollection_1">
    <path d="M 560.230952 433 
L 560.230952 -1 
" clip-path="url(#pdd6236ed7f)" style="fill: none; stroke-dasharray: 5.55,2.4; stroke-dashoffset: 0; stroke: #000000; stroke-opacity: 0.3; stroke-width: 1.5"/>
   </g>
   <g id="patch_5">
    <path d="M 50.6 372.102354 
L 50.6 41.6 
" style="fill: none; stroke: #000000; stroke-width: 0.8; stroke-linejoin: miter; stroke-linecap: square"/>
   </g>
   <g id="patch_6">
    <path d="M 709.2 372.102354 
L 709.2 41.6 
" style="fill: none; stroke: #000000; stroke-width: 0.8; stroke-linejoin: miter; stroke-linecap: square"/>
   </g>
   <g id="patch_7">
    <path d="M 50.6 372.102354 
L 709.2 372.102354 
" style="fill: none; stroke: #000000; stroke-width: 0.8; stroke-linejoin: miter; stroke-linecap: square"/>
   </g>
   <g id="patch_8">
    <path d="M 50.6 41.6 
L 709.2 41.6 
" style="fill: none; stroke: #000000; stroke-width: 0.8; stroke-linejoin: miter; stroke-linecap: square"/>
   </g>
   <g id="text_28">
    <g id="patch_9">
     <path d="M 364.219048 84.590303 
L 432.698735 84.590303 
Q 437.198735 84.590303 437.198735 80.090303 
L 437.198735 65.455928 
Q 437.198735 60.955928 432.698735 60.955928 
L 364.219048 60.955928 
Q 359.719048 60.955928 359.719048 65.455928 
L 359.719048 80.090303 
Q 359.719048 84.590303 364.219048 84.590303 
z
" style="fill: #ffffff; stroke: #006400; stroke-linejoin: miter"/>
    </g>
    <!-- Training -->
    <g style="fill: #006400" transform="translate(364.219048 76.853584) scale(0.15 -0.15)">
     <defs>
      <path id="DejaVuSans-Bold-54" d="M 31 4666 
L 4331 4666 
L 4331 3756 
L 2784 3756 
L 2784 0 
L 1581 0 
L 1581 3756 
L 31 3756 
L 31 4666 
z
" transform="scale(0.015625)"/>
      <path id="DejaVuSans-Bold-72" d="M 3138 2547 
Q 2991 2616 2845 2648 
Q 2700 2681 2553 2681 
Q 2122 2681 1889 2404 
Q 1656 2128 1656 1613 
L 1656 0 
L 538 0 
L 538 3500 
L 1656 3500 
L 1656 2925 
Q 1872 3269 2151 3426 
Q 2431 3584 2822 3584 
Q 2878 3584 2943 3579 
Q 3009 3575 3134 3559 
L 3138 2547 
z
" transform="scale(0.015625)"/>
      <path id="DejaVuSans-Bold-61" d="M 2106 1575 
Q 1756 1575 1579 1456 
Q 1403 1338 1403 1106 
Q 1403 894 1545 773 
Q 1688 653 1941 653 
Q 2256 653 2472 879 
Q 2688 1106 2688 1447 
L 2688 1575 
L 2106 1575 
z
M 3816 1997 
L 3816 0 
L 2688 0 
L 2688 519 
Q 2463 200 2181 54 
Q 1900 -91 1497 -91 
Q 953 -91 614 226 
Q 275 544 275 1050 
Q 275 1666 698 1953 
Q 1122 2241 2028 2241 
L 2688 2241 
L 2688 2328 
Q 2688 2594 2478 2717 
Q 2269 2841 1825 2841 
Q 1466 2841 1156 2769 
Q 847 2697 581 2553 
L 581 3406 
Q 941 3494 1303 3539 
Q 1666 3584 2028 3584 
Q 2975 3584 3395 3211 
Q 3816 2838 3816 1997 
z
" transform="scale(0.015625)"/>
      <path id="DejaVuSans-Bold-69" d="M 538 3500 
L 1656 3500 
L 1656 0 
L 538 0 
L 538 3500 
z
M 538 4863 
L 1656 4863 
L 1656 3950 
L 538 3950 
L 538 4863 
z
" transform="scale(0.015625)"/>
      <path id="DejaVuSans-Bold-6e" d="M 4056 2131 
L 4056 0 
L 2931 0 
L 2931 347 
L 2931 1631 
Q 2931 2084 2911 2256 
Q 2891 2428 2841 2509 
Q 2775 2619 2662 2680 
Q 2550 2741 2406 2741 
Q 2056 2741 1856 2470 
Q 1656 2200 1656 1722 
L 1656 0 
L 538 0 
L 538 3500 
L 1656 3500 
L 1656 2988 
Q 1909 3294 2193 3439 
Q 2478 3584 2822 3584 
Q 3428 3584 3742 3212 
Q 4056 2841 4056 2131 
z
" transform="scale(0.015625)"/>
      <path id="DejaVuSans-Bold-67" d="M 2919 594 
Q 2688 288 2409 144 
Q 2131 0 1766 0 
Q 1125 0 706 504 
Q 288 1009 288 1791 
Q 288 2575 706 3076 
Q 1125 3578 1766 3578 
Q 2131 3578 2409 3434 
Q 2688 3291 2919 2981 
L 2919 3500 
L 4044 3500 
L 4044 353 
Q 4044 -491 3511 -936 
Q 2978 -1381 1966 -1381 
Q 1638 -1381 1331 -1331 
Q 1025 -1281 716 -1178 
L 716 -306 
Q 1009 -475 1290 -558 
Q 1572 -641 1856 -641 
Q 2406 -641 2662 -400 
Q 2919 -159 2919 353 
L 2919 594 
z
M 2181 2772 
Q 1834 2772 1640 2515 
Q 1447 2259 1447 1791 
Q 1447 1309 1634 1061 
Q 1822 813 2181 813 
Q 2531 813 2725 1069 
Q 2919 1325 2919 1791 
Q 2919 2259 2725 2515 
Q 2531 2772 2181 2772 
z
" transform="scale(0.015625)"/>
     </defs>
     <use xlink:href="#DejaVuSans-Bold-54"/>
     <use xlink:href="#DejaVuSans-Bold-72" transform="translate(57.212891 0)"/>
     <use xlink:href="#DejaVuSans-Bold-61" transform="translate(106.529297 0)"/>
     <use xlink:href="#DejaVuSans-Bold-69" transform="translate(174.009766 0)"/>
     <use xlink:href="#DejaVuSans-Bold-6e" transform="translate(208.287109 0)"/>
     <use xlink:href="#DejaVuSans-Bold-69" transform="translate(279.478516 0)"/>
     <use xlink:href="#DejaVuSans-Bold-6e" transform="translate(313.755859 0)"/>
     <use xlink:href="#DejaVuSans-Bold-67" transform="translate(384.947266 0)"/>
    </g>
   </g>
   <g id="text_29">
    <g id="patch_10">
     <path d="M 615.114286 84.473116 
L 649.630692 84.473116 
Q 654.130692 84.473116 654.130692 79.973116 
L 654.130692 65.455928 
Q 654.130692 60.955928 649.630692 60.955928 
L 615.114286 60.955928 
Q 610.614286 60.955928 610.614286 65.455928 
L 610.614286 79.973116 
Q 610.614286 84.473116 615.114286 84.473116 
z
" style="fill: #ffffff; stroke: #c71585; stroke-linejoin: miter"/>
    </g>
    <!-- Test -->
    <g style="fill: #c71585" transform="translate(615.114286 76.853584) scale(0.15 -0.15)">
     <defs>
      <path id="DejaVuSans-Bold-65" d="M 4031 1759 
L 4031 1441 
L 1416 1441 
Q 1456 1047 1700 850 
Q 1944 653 2381 653 
Q 2734 653 3104 758 
Q 3475 863 3866 1075 
L 3866 213 
Q 3469 63 3072 -14 
Q 2675 -91 2278 -91 
Q 1328 -91 801 392 
Q 275 875 275 1747 
Q 275 2603 792 3093 
Q 1309 3584 2216 3584 
Q 3041 3584 3536 3087 
Q 4031 2591 4031 1759 
z
M 2881 2131 
Q 2881 2450 2695 2645 
Q 2509 2841 2209 2841 
Q 1884 2841 1681 2658 
Q 1478 2475 1428 2131 
L 2881 2131 
z
" transform="scale(0.015625)"/>
      <path id="DejaVuSans-Bold-73" d="M 3272 3391 
L 3272 2541 
Q 2913 2691 2578 2766 
Q 2244 2841 1947 2841 
Q 1628 2841 1473 2761 
Q 1319 2681 1319 2516 
Q 1319 2381 1436 2309 
Q 1553 2238 1856 2203 
L 2053 2175 
Q 2913 2066 3209 1816 
Q 3506 1566 3506 1031 
Q 3506 472 3093 190 
Q 2681 -91 1863 -91 
Q 1516 -91 1145 -36 
Q 775 19 384 128 
L 384 978 
Q 719 816 1070 734 
Q 1422 653 1784 653 
Q 2113 653 2278 743 
Q 2444 834 2444 1013 
Q 2444 1163 2330 1236 
Q 2216 1309 1875 1350 
L 1678 1375 
Q 931 1469 631 1722 
Q 331 1975 331 2491 
Q 331 3047 712 3315 
Q 1094 3584 1881 3584 
Q 2191 3584 2531 3537 
Q 2872 3491 3272 3391 
z
" transform="scale(0.015625)"/>
      <path id="DejaVuSans-Bold-74" d="M 1759 4494 
L 1759 3500 
L 2913 3500 
L 2913 2700 
L 1759 2700 
L 1759 1216 
Q 1759 972 1856 886 
Q 1953 800 2241 800 
L 2816 800 
L 2816 0 
L 1856 0 
Q 1194 0 917 276 
Q 641 553 641 1216 
L 641 2700 
L 84 2700 
L 84 3500 
L 641 3500 
L 641 4494 
L 1759 4494 
z
" transform="scale(0.015625)"/>
     </defs>
     <use xlink:href="#DejaVuSans-Bold-54"/>
     <use xlink:href="#DejaVuSans-Bold-65" transform="translate(54.962891 0)"/>
     <use xlink:href="#DejaVuSans-Bold-73" transform="translate(122.785156 0)"/>
     <use xlink:href="#DejaVuSans-Bold-74" transform="translate(182.306641 0)"/>
    </g>
   </g>
   <g id="text_30">
    <!-- Temperature anomalies in Europe and LSTM predictions (1940–2024) -->
    <g transform="translate(107.777188 21.6) scale(0.14 -0.14)">
     <defs>
      <path id="DejaVuSans-Bold-6d" d="M 3781 2919 
Q 3994 3244 4286 3414 
Q 4578 3584 4928 3584 
Q 5531 3584 5847 3212 
Q 6163 2841 6163 2131 
L 6163 0 
L 5038 0 
L 5038 1825 
Q 5041 1866 5042 1909 
Q 5044 1953 5044 2034 
Q 5044 2406 4934 2573 
Q 4825 2741 4581 2741 
Q 4263 2741 4089 2478 
Q 3916 2216 3909 1719 
L 3909 0 
L 2784 0 
L 2784 1825 
Q 2784 2406 2684 2573 
Q 2584 2741 2328 2741 
Q 2006 2741 1831 2477 
Q 1656 2213 1656 1722 
L 1656 0 
L 531 0 
L 531 3500 
L 1656 3500 
L 1656 2988 
Q 1863 3284 2130 3434 
Q 2397 3584 2719 3584 
Q 3081 3584 3359 3409 
Q 3638 3234 3781 2919 
z
" transform="scale(0.015625)"/>
      <path id="DejaVuSans-Bold-70" d="M 1656 506 
L 1656 -1331 
L 538 -1331 
L 538 3500 
L 1656 3500 
L 1656 2988 
Q 1888 3294 2169 3439 
Q 2450 3584 2816 3584 
Q 3463 3584 3878 3070 
Q 4294 2556 4294 1747 
Q 4294 938 3878 423 
Q 3463 -91 2816 -91 
Q 2450 -91 2169 54 
Q 1888 200 1656 506 
z
M 2400 2772 
Q 2041 2772 1848 2508 
Q 1656 2244 1656 1747 
Q 1656 1250 1848 986 
Q 2041 722 2400 722 
Q 2759 722 2948 984 
Q 3138 1247 3138 1747 
Q 3138 2247 2948 2509 
Q 2759 2772 2400 2772 
z
" transform="scale(0.015625)"/>
      <path id="DejaVuSans-Bold-75" d="M 500 1363 
L 500 3500 
L 1625 3500 
L 1625 3150 
Q 1625 2866 1622 2436 
Q 1619 2006 1619 1863 
Q 1619 1441 1641 1255 
Q 1663 1069 1716 984 
Q 1784 875 1895 815 
Q 2006 756 2150 756 
Q 2500 756 2700 1025 
Q 2900 1294 2900 1772 
L 2900 3500 
L 4019 3500 
L 4019 0 
L 2900 0 
L 2900 506 
Q 2647 200 2364 54 
Q 2081 -91 1741 -91 
Q 1134 -91 817 281 
Q 500 653 500 1363 
z
" transform="scale(0.015625)"/>
      <path id="DejaVuSans-Bold-20" transform="scale(0.015625)"/>
      <path id="DejaVuSans-Bold-6f" d="M 2203 2784 
Q 1831 2784 1636 2517 
Q 1441 2250 1441 1747 
Q 1441 1244 1636 976 
Q 1831 709 2203 709 
Q 2569 709 2762 976 
Q 2956 1244 2956 1747 
Q 2956 2250 2762 2517 
Q 2569 2784 2203 2784 
z
M 2203 3584 
Q 3106 3584 3614 3096 
Q 4122 2609 4122 1747 
Q 4122 884 3614 396 
Q 3106 -91 2203 -91 
Q 1297 -91 786 396 
Q 275 884 275 1747 
Q 275 2609 786 3096 
Q 1297 3584 2203 3584 
z
" transform="scale(0.015625)"/>
      <path id="DejaVuSans-Bold-6c" d="M 538 4863 
L 1656 4863 
L 1656 0 
L 538 0 
L 538 4863 
z
" transform="scale(0.015625)"/>
      <path id="DejaVuSans-Bold-45" d="M 588 4666 
L 3834 4666 
L 3834 3756 
L 1791 3756 
L 1791 2888 
L 3713 2888 
L 3713 1978 
L 1791 1978 
L 1791 909 
L 3903 909 
L 3903 0 
L 588 0 
L 588 4666 
z
" transform="scale(0.015625)"/>
      <path id="DejaVuSans-Bold-64" d="M 2919 2988 
L 2919 4863 
L 4044 4863 
L 4044 0 
L 2919 0 
L 2919 506 
Q 2688 197 2409 53 
Q 2131 -91 1766 -91 
Q 1119 -91 703 423 
Q 288 938 288 1747 
Q 288 2556 703 3070 
Q 1119 3584 1766 3584 
Q 2128 3584 2408 3439 
Q 2688 3294 2919 2988 
z
M 2181 722 
Q 2541 722 2730 984 
Q 2919 1247 2919 1747 
Q 2919 2247 2730 2509 
Q 2541 2772 2181 2772 
Q 1825 2772 1636 2509 
Q 1447 2247 1447 1747 
Q 1447 1247 1636 984 
Q 1825 722 2181 722 
z
" transform="scale(0.015625)"/>
      <path id="DejaVuSans-Bold-4c" d="M 588 4666 
L 1791 4666 
L 1791 909 
L 3903 909 
L 3903 0 
L 588 0 
L 588 4666 
z
" transform="scale(0.015625)"/>
      <path id="DejaVuSans-Bold-53" d="M 3834 4519 
L 3834 3531 
Q 3450 3703 3084 3790 
Q 2719 3878 2394 3878 
Q 1963 3878 1756 3759 
Q 1550 3641 1550 3391 
Q 1550 3203 1689 3098 
Q 1828 2994 2194 2919 
L 2706 2816 
Q 3484 2659 3812 2340 
Q 4141 2022 4141 1434 
Q 4141 663 3683 286 
Q 3225 -91 2284 -91 
Q 1841 -91 1394 -6 
Q 947 78 500 244 
L 500 1259 
Q 947 1022 1364 901 
Q 1781 781 2169 781 
Q 2563 781 2772 912 
Q 2981 1044 2981 1288 
Q 2981 1506 2839 1625 
Q 2697 1744 2272 1838 
L 1806 1941 
Q 1106 2091 782 2419 
Q 459 2747 459 3303 
Q 459 4000 909 4375 
Q 1359 4750 2203 4750 
Q 2588 4750 2994 4692 
Q 3400 4634 3834 4519 
z
" transform="scale(0.015625)"/>
      <path id="DejaVuSans-Bold-4d" d="M 588 4666 
L 2119 4666 
L 3181 2169 
L 4250 4666 
L 5778 4666 
L 5778 0 
L 4641 0 
L 4641 3413 
L 3566 897 
L 2803 897 
L 1728 3413 
L 1728 0 
L 588 0 
L 588 4666 
z
" transform="scale(0.015625)"/>
      <path id="DejaVuSans-Bold-63" d="M 3366 3391 
L 3366 2478 
Q 3138 2634 2908 2709 
Q 2678 2784 2431 2784 
Q 1963 2784 1702 2511 
Q 1441 2238 1441 1747 
Q 1441 1256 1702 982 
Q 1963 709 2431 709 
Q 2694 709 2930 787 
Q 3166 866 3366 1019 
L 3366 103 
Q 3103 6 2833 -42 
Q 2563 -91 2291 -91 
Q 1344 -91 809 395 
Q 275 881 275 1747 
Q 275 2613 809 3098 
Q 1344 3584 2291 3584 
Q 2566 3584 2833 3536 
Q 3100 3488 3366 3391 
z
" transform="scale(0.015625)"/>
      <path id="DejaVuSans-Bold-28" d="M 2413 -844 
L 1484 -844 
Q 1006 -72 778 623 
Q 550 1319 550 2003 
Q 550 2688 779 3389 
Q 1009 4091 1484 4856 
L 2413 4856 
Q 2013 4116 1813 3408 
Q 1613 2700 1613 2009 
Q 1613 1319 1811 609 
Q 2009 -100 2413 -844 
z
" transform="scale(0.015625)"/>
      <path id="DejaVuSans-Bold-31" d="M 750 831 
L 1813 831 
L 1813 3847 
L 722 3622 
L 722 4441 
L 1806 4666 
L 2950 4666 
L 2950 831 
L 4013 831 
L 4013 0 
L 750 0 
L 750 831 
z
" transform="scale(0.015625)"/>
      <path id="DejaVuSans-Bold-39" d="M 641 103 
L 641 966 
Q 928 831 1190 764 
Q 1453 697 1709 697 
Q 2247 697 2547 995 
Q 2847 1294 2900 1881 
Q 2688 1725 2447 1647 
Q 2206 1569 1925 1569 
Q 1209 1569 770 1986 
Q 331 2403 331 3084 
Q 331 3838 820 4291 
Q 1309 4744 2131 4744 
Q 3044 4744 3544 4128 
Q 4044 3513 4044 2388 
Q 4044 1231 3459 570 
Q 2875 -91 1856 -91 
Q 1528 -91 1228 -42 
Q 928 6 641 103 
z
M 2125 2350 
Q 2441 2350 2600 2554 
Q 2759 2759 2759 3169 
Q 2759 3575 2600 3781 
Q 2441 3988 2125 3988 
Q 1809 3988 1650 3781 
Q 1491 3575 1491 3169 
Q 1491 2759 1650 2554 
Q 1809 2350 2125 2350 
z
" transform="scale(0.015625)"/>
      <path id="DejaVuSans-Bold-34" d="M 2356 3675 
L 1038 1722 
L 2356 1722 
L 2356 3675 
z
M 2156 4666 
L 3494 4666 
L 3494 1722 
L 4159 1722 
L 4159 850 
L 3494 850 
L 3494 0 
L 2356 0 
L 2356 850 
L 288 850 
L 288 1881 
L 2156 4666 
z
" transform="scale(0.015625)"/>
      <path id="DejaVuSans-Bold-30" d="M 2944 2338 
Q 2944 3213 2780 3570 
Q 2616 3928 2228 3928 
Q 1841 3928 1675 3570 
Q 1509 3213 1509 2338 
Q 1509 1453 1675 1090 
Q 1841 728 2228 728 
Q 2613 728 2778 1090 
Q 2944 1453 2944 2338 
z
M 4147 2328 
Q 4147 1169 3647 539 
Q 3147 -91 2228 -91 
Q 1306 -91 806 539 
Q 306 1169 306 2328 
Q 306 3491 806 4120 
Q 1306 4750 2228 4750 
Q 3147 4750 3647 4120 
Q 4147 3491 4147 2328 
z
" transform="scale(0.015625)"/>
      <path id="DejaVuSans-Bold-2013" d="M 344 2156 
L 2856 2156 
L 2856 1350 
L 344 1350 
L 344 2156 
z
" transform="scale(0.015625)"/>
      <path id="DejaVuSans-Bold-32" d="M 1844 884 
L 3897 884 
L 3897 0 
L 506 0 
L 506 884 
L 2209 2388 
Q 2438 2594 2547 2791 
Q 2656 2988 2656 3200 
Q 2656 3528 2436 3728 
Q 2216 3928 1850 3928 
Q 1569 3928 1234 3808 
Q 900 3688 519 3450 
L 519 4475 
Q 925 4609 1322 4679 
Q 1719 4750 2100 4750 
Q 2938 4750 3402 4381 
Q 3866 4013 3866 3353 
Q 3866 2972 3669 2642 
Q 3472 2313 2841 1759 
L 1844 884 
z
" transform="scale(0.015625)"/>
      <path id="DejaVuSans-Bold-29" d="M 513 -844 
Q 913 -100 1113 609 
Q 1313 1319 1313 2009 
Q 1313 2700 1113 3408 
Q 913 4116 513 4856 
L 1441 4856 
Q 1916 4091 2145 3389 
Q 2375 2688 2375 2003 
Q 2375 1319 2147 623 
Q 1919 -72 1441 -844 
L 513 -844 
z
" transform="scale(0.015625)"/>
     </defs>
     <use xlink:href="#DejaVuSans-Bold-54"/>
     <use xlink:href="#DejaVuSans-Bold-65" transform="translate(54.962891 0)"/>
     <use xlink:href="#DejaVuSans-Bold-6d" transform="translate(122.785156 0)"/>
     <use xlink:href="#DejaVuSans-Bold-70" transform="translate(226.984375 0)"/>
     <use xlink:href="#DejaVuSans-Bold-65" transform="translate(298.566406 0)"/>
     <use xlink:href="#DejaVuSans-Bold-72" transform="translate(366.388672 0)"/>
     <use xlink:href="#DejaVuSans-Bold-61" transform="translate(415.705078 0)"/>
     <use xlink:href="#DejaVuSans-Bold-74" transform="translate(483.185547 0)"/>
     <use xlink:href="#DejaVuSans-Bold-75" transform="translate(530.988281 0)"/>
     <use xlink:href="#DejaVuSans-Bold-72" transform="translate(602.179688 0)"/>
     <use xlink:href="#DejaVuSans-Bold-65" transform="translate(651.496094 0)"/>
     <use xlink:href="#DejaVuSans-Bold-20" transform="translate(719.318359 0)"/>
     <use xlink:href="#DejaVuSans-Bold-61" transform="translate(754.132812 0)"/>
     <use xlink:href="#DejaVuSans-Bold-6e" transform="translate(821.613281 0)"/>
     <use xlink:href="#DejaVuSans-Bold-6f" transform="translate(892.804688 0)"/>
     <use xlink:href="#DejaVuSans-Bold-6d" transform="translate(961.505859 0)"/>
     <use xlink:href="#DejaVuSans-Bold-61" transform="translate(1065.705078 0)"/>
     <use xlink:href="#DejaVuSans-Bold-6c" transform="translate(1133.185547 0)"/>
     <use xlink:href="#DejaVuSans-Bold-69" transform="translate(1167.462891 0)"/>
     <use xlink:href="#DejaVuSans-Bold-65" transform="translate(1201.740234 0)"/>
     <use xlink:href="#DejaVuSans-Bold-73" transform="translate(1269.5625 0)"/>
     <use xlink:href="#DejaVuSans-Bold-20" transform="translate(1329.083984 0)"/>
     <use xlink:href="#DejaVuSans-Bold-69" transform="translate(1363.898438 0)"/>
     <use xlink:href="#DejaVuSans-Bold-6e" transform="translate(1398.175781 0)"/>
     <use xlink:href="#DejaVuSans-Bold-20" transform="translate(1469.367188 0)"/>
     <use xlink:href="#DejaVuSans-Bold-45" transform="translate(1504.181641 0)"/>
     <use xlink:href="#DejaVuSans-Bold-75" transform="translate(1572.492188 0)"/>
     <use xlink:href="#DejaVuSans-Bold-72" transform="translate(1643.683594 0)"/>
     <use xlink:href="#DejaVuSans-Bold-6f" transform="translate(1693 0)"/>
     <use xlink:href="#DejaVuSans-Bold-70" transform="translate(1761.701172 0)"/>
     <use xlink:href="#DejaVuSans-Bold-65" transform="translate(1833.283203 0)"/>
     <use xlink:href="#DejaVuSans-Bold-20" transform="translate(1901.105469 0)"/>
     <use xlink:href="#DejaVuSans-Bold-61" transform="translate(1935.919922 0)"/>
     <use xlink:href="#DejaVuSans-Bold-6e" transform="translate(2003.400391 0)"/>
     <use xlink:href="#DejaVuSans-Bold-64" transform="translate(2074.591797 0)"/>
     <use xlink:href="#DejaVuSans-Bold-20" transform="translate(2146.173828 0)"/>
     <use xlink:href="#DejaVuSans-Bold-4c" transform="translate(2180.988281 0)"/>
     <use xlink:href="#DejaVuSans-Bold-53" transform="translate(2244.708984 0)"/>
     <use xlink:href="#DejaVuSans-Bold-54" transform="translate(2316.730469 0)"/>
     <use xlink:href="#DejaVuSans-Bold-4d" transform="translate(2384.943359 0)"/>
     <use xlink:href="#DejaVuSans-Bold-20" transform="translate(2484.455078 0)"/>
     <use xlink:href="#DejaVuSans-Bold-70" transform="translate(2519.269531 0)"/>
     <use xlink:href="#DejaVuSans-Bold-72" transform="translate(2590.851562 0)"/>
     <use xlink:href="#DejaVuSans-Bold-65" transform="translate(2640.167969 0)"/>
     <use xlink:href="#DejaVuSans-Bold-64" transform="translate(2707.990234 0)"/>
     <use xlink:href="#DejaVuSans-Bold-69" transform="translate(2779.572266 0)"/>
     <use xlink:href="#DejaVuSans-Bold-63" transform="translate(2813.849609 0)"/>
     <use xlink:href="#DejaVuSans-Bold-74" transform="translate(2873.126953 0)"/>
     <use xlink:href="#DejaVuSans-Bold-69" transform="translate(2920.929688 0)"/>
     <use xlink:href="#DejaVuSans-Bold-6f" transform="translate(2955.207031 0)"/>
     <use xlink:href="#DejaVuSans-Bold-6e" transform="translate(3023.908203 0)"/>
     <use xlink:href="#DejaVuSans-Bold-73" transform="translate(3095.099609 0)"/>
     <use xlink:href="#DejaVuSans-Bold-20" transform="translate(3154.621094 0)"/>
     <use xlink:href="#DejaVuSans-Bold-28" transform="translate(3189.435547 0)"/>
     <use xlink:href="#DejaVuSans-Bold-31" transform="translate(3235.138672 0)"/>
     <use xlink:href="#DejaVuSans-Bold-39" transform="translate(3304.71875 0)"/>
     <use xlink:href="#DejaVuSans-Bold-34" transform="translate(3374.298828 0)"/>
     <use xlink:href="#DejaVuSans-Bold-30" transform="translate(3443.878906 0)"/>
     <use xlink:href="#DejaVuSans-Bold-2013" transform="translate(3513.458984 0)"/>
     <use xlink:href="#DejaVuSans-Bold-32" transform="translate(3563.458984 0)"/>
     <use xlink:href="#DejaVuSans-Bold-30" transform="translate(3633.039062 0)"/>
     <use xlink:href="#DejaVuSans-Bold-32" transform="translate(3702.619141 0)"/>
     <use xlink:href="#DejaVuSans-Bold-34" transform="translate(3772.199219 0)"/>
     <use xlink:href="#DejaVuSans-Bold-29" transform="translate(3841.779297 0)"/>
    </g>
   </g>
   <g id="legend_1">
    <g id="patch_11">
     <path d="M 59.6 122.3125 
L 237.476563 122.3125 
Q 239.476563 122.3125 239.476563 120.3125 
L 239.476563 50.6 
Q 239.476563 48.6 237.476563 48.6 
L 59.6 48.6 
Q 57.6 48.6 57.6 50.6 
L 57.6 120.3125 
Q 57.6 122.3125 59.6 122.3125 
z
" style="fill: #4d4d4d; opacity: 0.5; stroke: #4d4d4d; stroke-linejoin: miter"/>
    </g>
    <g id="patch_12">
     <path d="M 57.6 120.3125 
L 235.476563 120.3125 
Q 237.476563 120.3125 237.476563 118.3125 
L 237.476563 48.6 
Q 237.476563 46.6 235.476563 46.6 
L 57.6 46.6 
Q 55.6 46.6 55.6 48.6 
L 55.6 118.3125 
Q 55.6 120.3125 57.6 120.3125 
z
" style="fill: #ffffff; stroke: #cccccc; stroke-linejoin: miter"/>
    </g>
    <g id="line2d_57">
     <path d="M 65.6 60.698438 
L 75.6 60.698438 
L 85.6 60.698438 
" style="fill: none; stroke-dasharray: 5.55,2.4; stroke-dashoffset: 0; stroke: #000000; stroke-width: 1.5"/>
    </g>
    <g id="text_31">
     <!-- CDS Temperature anomaly -->
     <g transform="translate(93.6 64.198438) scale(0.1 -0.1)">
      <defs>
       <path id="DejaVuSans-44" d="M 1259 4147 
L 1259 519 
L 2022 519 
Q 2988 519 3436 956 
Q 3884 1394 3884 2338 
Q 3884 3275 3436 3711 
Q 2988 4147 2022 4147 
L 1259 4147 
z
M 628 4666 
L 1925 4666 
Q 3281 4666 3915 4102 
Q 4550 3538 4550 2338 
Q 4550 1131 3912 565 
Q 3275 0 1925 0 
L 628 0 
L 628 4666 
z
" transform="scale(0.015625)"/>
       <path id="DejaVuSans-53" d="M 3425 4513 
L 3425 3897 
Q 3066 4069 2747 4153 
Q 2428 4238 2131 4238 
Q 1616 4238 1336 4038 
Q 1056 3838 1056 3469 
Q 1056 3159 1242 3001 
Q 1428 2844 1947 2747 
L 2328 2669 
Q 3034 2534 3370 2195 
Q 3706 1856 3706 1288 
Q 3706 609 3251 259 
Q 2797 -91 1919 -91 
Q 1588 -91 1214 -16 
Q 841 59 441 206 
L 441 856 
Q 825 641 1194 531 
Q 1563 422 1919 422 
Q 2459 422 2753 634 
Q 3047 847 3047 1241 
Q 3047 1584 2836 1778 
Q 2625 1972 2144 2069 
L 1759 2144 
Q 1053 2284 737 2584 
Q 422 2884 422 3419 
Q 422 4038 858 4394 
Q 1294 4750 2059 4750 
Q 2388 4750 2728 4690 
Q 3069 4631 3425 4513 
z
" transform="scale(0.015625)"/>
      </defs>
      <use xlink:href="#DejaVuSans-43"/>
      <use xlink:href="#DejaVuSans-44" transform="translate(69.824219 0)"/>
      <use xlink:href="#DejaVuSans-53" transform="translate(146.826172 0)"/>
      <use xlink:href="#DejaVuSans-20" transform="translate(210.302734 0)"/>
      <use xlink:href="#DejaVuSans-54" transform="translate(242.089844 0)"/>
      <use xlink:href="#DejaVuSans-65" transform="translate(286.173828 0)"/>
      <use xlink:href="#DejaVuSans-6d" transform="translate(347.697266 0)"/>
      <use xlink:href="#DejaVuSans-70" transform="translate(445.109375 0)"/>
      <use xlink:href="#DejaVuSans-65" transform="translate(508.585938 0)"/>
      <use xlink:href="#DejaVuSans-72" transform="translate(570.109375 0)"/>
      <use xlink:href="#DejaVuSans-61" transform="translate(611.222656 0)"/>
      <use xlink:href="#DejaVuSans-74" transform="translate(672.501953 0)"/>
      <use xlink:href="#DejaVuSans-75" transform="translate(711.710938 0)"/>
      <use xlink:href="#DejaVuSans-72" transform="translate(775.089844 0)"/>
      <use xlink:href="#DejaVuSans-65" transform="translate(813.953125 0)"/>
      <use xlink:href="#DejaVuSans-20" transform="translate(875.476562 0)"/>
      <use xlink:href="#DejaVuSans-61" transform="translate(907.263672 0)"/>
      <use xlink:href="#DejaVuSans-6e" transform="translate(968.542969 0)"/>
      <use xlink:href="#DejaVuSans-6f" transform="translate(1031.921875 0)"/>
      <use xlink:href="#DejaVuSans-6d" transform="translate(1093.103516 0)"/>
      <use xlink:href="#DejaVuSans-61" transform="translate(1190.515625 0)"/>
      <use xlink:href="#DejaVuSans-6c" transform="translate(1251.794922 0)"/>
      <use xlink:href="#DejaVuSans-79" transform="translate(1279.578125 0)"/>
     </g>
    </g>
    <g id="line2d_58">
     <path d="M 65.6 75.376563 
L 75.6 75.376563 
L 85.6 75.376563 
" style="fill: none; stroke: #1e90ff; stroke-width: 1.5; stroke-linecap: square"/>
    </g>
    <g id="text_32">
     <!-- Exponential fit -->
     <g transform="translate(93.6 78.876563) scale(0.1 -0.1)">
      <defs>
       <path id="DejaVuSans-45" d="M 628 4666 
L 3578 4666 
L 3578 4134 
L 1259 4134 
L 1259 2753 
L 3481 2753 
L 3481 2222 
L 1259 2222 
L 1259 531 
L 3634 531 
L 3634 0 
L 628 0 
L 628 4666 
z
" transform="scale(0.015625)"/>
       <path id="DejaVuSans-78" d="M 3513 3500 
L 2247 1797 
L 3578 0 
L 2900 0 
L 1881 1375 
L 863 0 
L 184 0 
L 1544 1831 
L 300 3500 
L 978 3500 
L 1906 2253 
L 2834 3500 
L 3513 3500 
z
" transform="scale(0.015625)"/>
       <path id="DejaVuSans-69" d="M 603 3500 
L 1178 3500 
L 1178 0 
L 603 0 
L 603 3500 
z
M 603 4863 
L 1178 4863 
L 1178 4134 
L 603 4134 
L 603 4863 
z
" transform="scale(0.015625)"/>
       <path id="DejaVuSans-66" d="M 2375 4863 
L 2375 4384 
L 1825 4384 
Q 1516 4384 1395 4259 
Q 1275 4134 1275 3809 
L 1275 3500 
L 2222 3500 
L 2222 3053 
L 1275 3053 
L 1275 0 
L 697 0 
L 697 3053 
L 147 3053 
L 147 3500 
L 697 3500 
L 697 3744 
Q 697 4328 969 4595 
Q 1241 4863 1831 4863 
L 2375 4863 
z
" transform="scale(0.015625)"/>
      </defs>
      <use xlink:href="#DejaVuSans-45"/>
      <use xlink:href="#DejaVuSans-78" transform="translate(63.183594 0)"/>
      <use xlink:href="#DejaVuSans-70" transform="translate(122.363281 0)"/>
      <use xlink:href="#DejaVuSans-6f" transform="translate(185.839844 0)"/>
      <use xlink:href="#DejaVuSans-6e" transform="translate(247.021484 0)"/>
      <use xlink:href="#DejaVuSans-65" transform="translate(310.400391 0)"/>
      <use xlink:href="#DejaVuSans-6e" transform="translate(371.923828 0)"/>
      <use xlink:href="#DejaVuSans-74" transform="translate(435.302734 0)"/>
      <use xlink:href="#DejaVuSans-69" transform="translate(474.511719 0)"/>
      <use xlink:href="#DejaVuSans-61" transform="translate(502.294922 0)"/>
      <use xlink:href="#DejaVuSans-6c" transform="translate(563.574219 0)"/>
      <use xlink:href="#DejaVuSans-20" transform="translate(591.357422 0)"/>
      <use xlink:href="#DejaVuSans-66" transform="translate(623.144531 0)"/>
      <use xlink:href="#DejaVuSans-69" transform="translate(658.349609 0)"/>
      <use xlink:href="#DejaVuSans-74" transform="translate(686.132812 0)"/>
     </g>
    </g>
    <g id="line2d_59">
     <path d="M 65.6 90.054688 
L 75.6 90.054688 
L 85.6 90.054688 
" style="fill: none; stroke: #ff8c00; stroke-width: 2; stroke-linecap: square"/>
    </g>
    <g id="text_33">
     <!-- LSTM predictions -->
     <g transform="translate(93.6 93.554688) scale(0.1 -0.1)">
      <defs>
       <path id="DejaVuSans-4c" d="M 628 4666 
L 1259 4666 
L 1259 531 
L 3531 531 
L 3531 0 
L 628 0 
L 628 4666 
z
" transform="scale(0.015625)"/>
       <path id="DejaVuSans-4d" d="M 628 4666 
L 1569 4666 
L 2759 1491 
L 3956 4666 
L 4897 4666 
L 4897 0 
L 4281 0 
L 4281 4097 
L 3078 897 
L 2444 897 
L 1241 4097 
L 1241 0 
L 628 0 
L 628 4666 
z
" transform="scale(0.015625)"/>
       <path id="DejaVuSans-64" d="M 2906 2969 
L 2906 4863 
L 3481 4863 
L 3481 0 
L 2906 0 
L 2906 525 
Q 2725 213 2448 61 
Q 2172 -91 1784 -91 
Q 1150 -91 751 415 
Q 353 922 353 1747 
Q 353 2572 751 3078 
Q 1150 3584 1784 3584 
Q 2172 3584 2448 3432 
Q 2725 3281 2906 2969 
z
M 947 1747 
Q 947 1113 1208 752 
Q 1469 391 1925 391 
Q 2381 391 2643 752 
Q 2906 1113 2906 1747 
Q 2906 2381 2643 2742 
Q 2381 3103 1925 3103 
Q 1469 3103 1208 2742 
Q 947 2381 947 1747 
z
" transform="scale(0.015625)"/>
       <path id="DejaVuSans-63" d="M 3122 3366 
L 3122 2828 
Q 2878 2963 2633 3030 
Q 2388 3097 2138 3097 
Q 1578 3097 1268 2742 
Q 959 2388 959 1747 
Q 959 1106 1268 751 
Q 1578 397 2138 397 
Q 2388 397 2633 464 
Q 2878 531 3122 666 
L 3122 134 
Q 2881 22 2623 -34 
Q 2366 -91 2075 -91 
Q 1284 -91 818 406 
Q 353 903 353 1747 
Q 353 2603 823 3093 
Q 1294 3584 2113 3584 
Q 2378 3584 2631 3529 
Q 2884 3475 3122 3366 
z
" transform="scale(0.015625)"/>
       <path id="DejaVuSans-73" d="M 2834 3397 
L 2834 2853 
Q 2591 2978 2328 3040 
Q 2066 3103 1784 3103 
Q 1356 3103 1142 2972 
Q 928 2841 928 2578 
Q 928 2378 1081 2264 
Q 1234 2150 1697 2047 
L 1894 2003 
Q 2506 1872 2764 1633 
Q 3022 1394 3022 966 
Q 3022 478 2636 193 
Q 2250 -91 1575 -91 
Q 1294 -91 989 -36 
Q 684 19 347 128 
L 347 722 
Q 666 556 975 473 
Q 1284 391 1588 391 
Q 1994 391 2212 530 
Q 2431 669 2431 922 
Q 2431 1156 2273 1281 
Q 2116 1406 1581 1522 
L 1381 1569 
Q 847 1681 609 1914 
Q 372 2147 372 2553 
Q 372 3047 722 3315 
Q 1072 3584 1716 3584 
Q 2034 3584 2315 3537 
Q 2597 3491 2834 3397 
z
" transform="scale(0.015625)"/>
      </defs>
      <use xlink:href="#DejaVuSans-4c"/>
      <use xlink:href="#DejaVuSans-53" transform="translate(55.712891 0)"/>
      <use xlink:href="#DejaVuSans-54" transform="translate(119.189453 0)"/>
      <use xlink:href="#DejaVuSans-4d" transform="translate(180.273438 0)"/>
      <use xlink:href="#DejaVuSans-20" transform="translate(266.552734 0)"/>
      <use xlink:href="#DejaVuSans-70" transform="translate(298.339844 0)"/>
      <use xlink:href="#DejaVuSans-72" transform="translate(361.816406 0)"/>
      <use xlink:href="#DejaVuSans-65" transform="translate(400.679688 0)"/>
      <use xlink:href="#DejaVuSans-64" transform="translate(462.203125 0)"/>
      <use xlink:href="#DejaVuSans-69" transform="translate(525.679688 0)"/>
      <use xlink:href="#DejaVuSans-63" transform="translate(553.462891 0)"/>
      <use xlink:href="#DejaVuSans-74" transform="translate(608.443359 0)"/>
      <use xlink:href="#DejaVuSans-69" transform="translate(647.652344 0)"/>
      <use xlink:href="#DejaVuSans-6f" transform="translate(675.435547 0)"/>
      <use xlink:href="#DejaVuSans-6e" transform="translate(736.617188 0)"/>
      <use xlink:href="#DejaVuSans-73" transform="translate(799.996094 0)"/>
     </g>
    </g>
    <g id="line2d_60">
     <path d="M 65.6 104.732813 
L 75.6 104.732813 
L 85.6 104.732813 
" style="fill: none; stroke: #9400d3; stroke-width: 2; stroke-linecap: square"/>
    </g>
    <g id="text_34">
     <!-- MC Dropout predictions -->
     <g transform="translate(93.6 108.232813) scale(0.1 -0.1)">
      <use xlink:href="#DejaVuSans-4d"/>
      <use xlink:href="#DejaVuSans-43" transform="translate(86.279297 0)"/>
      <use xlink:href="#DejaVuSans-20" transform="translate(156.103516 0)"/>
      <use xlink:href="#DejaVuSans-44" transform="translate(187.890625 0)"/>
      <use xlink:href="#DejaVuSans-72" transform="translate(264.892578 0)"/>
      <use xlink:href="#DejaVuSans-6f" transform="translate(303.755859 0)"/>
      <use xlink:href="#DejaVuSans-70" transform="translate(364.9375 0)"/>
      <use xlink:href="#DejaVuSans-6f" transform="translate(428.414062 0)"/>
      <use xlink:href="#DejaVuSans-75" transform="translate(489.595703 0)"/>
      <use xlink:href="#DejaVuSans-74" transform="translate(552.974609 0)"/>
      <use xlink:href="#DejaVuSans-20" transform="translate(592.183594 0)"/>
      <use xlink:href="#DejaVuSans-70" transform="translate(623.970703 0)"/>
      <use xlink:href="#DejaVuSans-72" transform="translate(687.447266 0)"/>
      <use xlink:href="#DejaVuSans-65" transform="translate(726.310547 0)"/>
      <use xlink:href="#DejaVuSans-64" transform="translate(787.833984 0)"/>
      <use xlink:href="#DejaVuSans-69" transform="translate(851.310547 0)"/>
      <use xlink:href="#DejaVuSans-63" transform="translate(879.09375 0)"/>
      <use xlink:href="#DejaVuSans-74" transform="translate(934.074219 0)"/>
      <use xlink:href="#DejaVuSans-69" transform="translate(973.283203 0)"/>
      <use xlink:href="#DejaVuSans-6f" transform="translate(1001.066406 0)"/>
      <use xlink:href="#DejaVuSans-6e" transform="translate(1062.248047 0)"/>
      <use xlink:href="#DejaVuSans-73" transform="translate(1125.626953 0)"/>
     </g>
    </g>
   </g>
  </g>
 </g>
 <defs>
  <clipPath id="pdd6236ed7f">
   <rect x="50.6" y="41.6" width="658.6" height="330.502354"/>
  </clipPath>
 </defs>
</svg>
